<?xml version="1.0" encoding="UTF-8" standalone="no"?>
<!-- Created with Inkscape (http://www.inkscape.org/) -->

<svg
   xmlns:dc="http://purl.org/dc/elements/1.1/"
   xmlns:cc="http://creativecommons.org/ns#"
   xmlns:rdf="http://www.w3.org/1999/02/22-rdf-syntax-ns#"
   xmlns:svg="http://www.w3.org/2000/svg"
   xmlns="http://www.w3.org/2000/svg"
   xmlns:sodipodi="http://sodipodi.sourceforge.net/DTD/sodipodi-0.dtd"
   xmlns:inkscape="http://www.inkscape.org/namespaces/inkscape"
   width="1100"
   height="360"
   id="svg3726"
   version="1.1"
   inkscape:version="0.47 r22583"
   sodipodi:docname="hl_logo_large.svg"
   inkscape:export-filename="C:\Documents and Settings\Monika Kofler\Desktop\hl_logo4.png"
   inkscape:export-xdpi="90"
   inkscape:export-ydpi="90">
  <defs
     id="defs3728">
    <inkscape:perspective
       sodipodi:type="inkscape:persp3d"
       inkscape:vp_x="0 : 526.18109 : 1"
       inkscape:vp_y="0 : 1000 : 0"
       inkscape:vp_z="744.09448 : 526.18109 : 1"
       inkscape:persp3d-origin="372.04724 : 350.78739 : 1"
       id="perspective3734" />
    <inkscape:perspective
       id="perspective3744"
       inkscape:persp3d-origin="0.5 : 0.33333333 : 1"
       inkscape:vp_z="1 : 0.5 : 1"
       inkscape:vp_y="0 : 1000 : 0"
       inkscape:vp_x="0 : 0.5 : 1"
       sodipodi:type="inkscape:persp3d" />
  </defs>
  <sodipodi:namedview
     id="base"
     pagecolor="#ffffff"
     bordercolor="#000000"
     borderopacity="1.0"
     inkscape:pageopacity="0"
     inkscape:pageshadow="0"
     inkscape:zoom="1.5417921"
     inkscape:cx="666.02251"
     inkscape:cy="135.26634"
     inkscape:document-units="px"
     inkscape:current-layer="layer1"
     showgrid="false"
     inkscape:window-width="1280"
     inkscape:window-height="744"
     inkscape:window-x="-4"
     inkscape:window-y="-4"
     inkscape:window-maximized="1"
     showguides="true">
    <inkscape:grid
       type="xygrid"
       id="grid3761"
       empspacing="5"
       visible="true"
       enabled="true"
       snapvisiblegridlinesonly="true" />
  </sodipodi:namedview>
  <metadata
     id="metadata3731">
    <rdf:RDF>
      <cc:Work
         rdf:about="">
        <dc:format>image/svg+xml</dc:format>
        <dc:type
           rdf:resource="http://purl.org/dc/dcmitype/StillImage" />
        <dc:title />
      </cc:Work>
    </rdf:RDF>
  </metadata>
  <g
     inkscape:label="Layer 1"
     inkscape:groupmode="layer"
     id="layer1"
     transform="translate(0,-692.36218)"
     style="display:inline">
    <path
       style="fill:#f7931d;fill-opacity:1;stroke:#f7931d;stroke-width:2;stroke-linecap:butt;stroke-linejoin:miter;stroke-miterlimit:4;stroke-opacity:1;stroke-dasharray:none"
       d="m 135.97656,984.48581 15.31105,-84.8493 -88.282864,-0.3258 -14.65952,86.0025 -29.31903,-0.3258 23.78099,-132.91294 11.72762,-67.75955 0,10e-6 28.34173,0 -14.00798,86.32826 87.957084,10e-6 11.53189,-69.15743 -12.70625,0 34.4026,-44.53527 19.87179,44.53527 -12.70491,0 -15.96259,91.96114 -16.61411,91.0389 -28.6675,0 z"
       id="path2844-7-8"
       sodipodi:nodetypes="ccccccccccccccccccc" />
    <path
       style="fill:#f7931d;fill-opacity:1;stroke:#f7931d;stroke-width:2;stroke-linecap:butt;stroke-linejoin:miter;stroke-miterlimit:4;stroke-opacity:1;stroke-dasharray:none"
       d="m 304.64083,984.48581 0,12.2292 45.03885,-27.0386 -45.03885,-28.016 0,14.8254 -54.32005,-0.1662 -17.60601,0 2.94382,-21.2429 2.60881,-16.8715 8.46994,-51.79699 4.23497,-22.15215 9.7731,-59.94114 -28.668,0 -24.69352,145.68888 -8.78717,54.4818 44.88297,0 30.94787,2e-4 30.21329,0 -2e-5,0 z"
       id="path2846-4-8"
       sodipodi:nodetypes="ccccccccccccccccccc" />
    <g
       style="font-size:170px;font-style:normal;font-variant:normal;font-weight:normal;font-stretch:normal;fill:#000000;fill-opacity:1;stroke:none;font-family:Kartika;-inkscape-font-specification:Kartika"
       id="text2816">
      <path
         d="m 469.02948,874.58496 -10.12695,0 0,-36.1084 -39.92676,0 0,36.1084 -10.04395,0 0,-76.61621 10.04395,0 0,31.37695 39.92676,0 0,-31.37695 10.12695,0 z"
         style="font-family:Kartika;-inkscape-font-specification:Kartika"
         id="path3030" />
      <path
         d="m 508.5412,875.91309 c -4.03974,-10e-6 -7.71975,-0.65023 -11.04004,-1.95069 -3.32033,-1.30045 -6.17026,-3.18196 -8.54981,-5.64453 -2.37956,-2.46256 -4.21957,-5.49234 -5.52001,-9.08935 -1.30046,-3.59699 -1.95069,-7.71971 -1.95069,-12.36817 0,-4.53773 0.63639,-8.60511 1.90918,-12.20215 1.27278,-3.59696 3.05745,-6.64058 5.35401,-9.13086 2.29653,-2.49018 5.02195,-4.38552 8.17626,-5.68603 3.15428,-1.3004 6.6406,-1.95063 10.45899,-1.95069 3.98434,6e-5 7.58134,0.65029 10.79101,1.95069 3.2096,1.30051 5.94885,3.18202 8.21778,5.64453 2.26883,2.46261 4.01199,5.49239 5.22949,9.08936 1.21739,3.59704 1.82612,7.69208 1.82617,12.28515 l 0,2.40723 -41.75293,0 c 0.22134,3.26499 0.8024,6.08726 1.74317,8.46679 0.94074,2.37958 2.15818,4.34409 3.65234,5.89356 1.49412,1.54949 3.22345,2.68393 5.18799,3.40332 1.96449,0.71941 4.05352,1.07911 6.26709,1.0791 1.66012,10e-6 3.29261,-0.20751 4.89746,-0.62256 1.60478,-0.41503 3.04358,-1.05142 4.31641,-1.90918 1.27274,-0.85773 2.31034,-1.923 3.11279,-3.1958 0.80236,-1.27277 1.25891,-2.73924 1.36963,-4.39941 l 10.12695,0 c -0.38742,2.93295 -1.27284,5.52003 -2.65625,7.76123 -1.38351,2.24122 -3.12668,4.10889 -5.22949,5.60303 -2.10291,1.49414 -4.52397,2.62858 -7.26318,3.40332 -2.7393,0.77474 -5.63074,1.1621 -8.67432,1.16211 z m 14.52637,-34.44825 c -0.83013,-5.3678 -2.61479,-9.366 -5.35401,-11.99463 -2.73929,-2.62853 -6.18411,-3.94282 -10.33447,-3.94287 -1.93688,5e-5 -3.74921,0.31825 -5.43701,0.95459 -1.68785,0.63644 -3.20966,1.60487 -4.56543,2.90528 -1.35581,1.3005 -2.50409,2.96065 -3.44483,4.98047 -0.94077,2.01989 -1.60483,4.38561 -1.99218,7.09716 z"
         style="font-family:Kartika;-inkscape-font-specification:Kartika"
         id="path3032" />
      <path
         d="m 579.84491,867.5293 c -4.92517,5.58919 -10.43135,8.38378 -16.51856,8.38379 -12.56186,-10e-6 -18.84278,-6.83431 -18.84277,-20.50293 l 0,-36.35743 9.87793,0 0,35.94239 c -2e-5,4.53777 0.80239,7.78891 2.40723,9.75342 1.60479,1.96452 4.26104,2.94678 7.96875,2.94677 5.47848,1e-5 10.51428,-2.9606 15.10742,-8.88183 l 0,-39.76075 9.79492,0 0,55.53223 -9.79492,0 z"
         style="font-family:Kartika;-inkscape-font-specification:Kartika"
         id="path3034" />
      <path
         d="m 633.30194,828.10059 c -1.60485,-0.44267 -3.62471,-0.66402 -6.05957,-0.66407 -4.98049,5e-5 -9.26923,2.62863 -12.86621,7.88575 l 0,39.26269 -9.87793,0 0,-55.53223 9.87793,0 0,7.80274 c 3.98435,-5.97651 8.7988,-8.96479 14.44336,-8.96485 0.71937,6e-5 1.43877,0.0277 2.1582,0.083 0.71937,0.0554 1.49411,0.16607 2.32422,0.33203 z"
         style="font-family:Kartika;-inkscape-font-specification:Kartika"
         id="path3036" />
      <path
         d="m 650.23553,874.58496 -9.87793,0 0,-55.53223 9.87793,0 z m 0,-65.99121 -9.87793,0 0,-10.625 9.87793,0 z"
         style="font-family:Kartika;-inkscape-font-specification:Kartika"
         id="path3038" />
      <path
         d="m 684.68378,875.91309 c -15.16278,-10e-6 -23.07618,-5.97656 -23.74024,-17.92969 l 9.87793,0 c 0.11067,6.75131 4.70376,10.12696 13.7793,10.12695 4.15036,10e-6 7.27698,-0.81623 9.37988,-2.44873 2.10283,-1.63248 3.15426,-3.77684 3.1543,-6.4331 -4e-5,-1.21744 -0.20756,-2.22736 -0.62256,-3.02979 -0.41508,-0.80239 -1.20365,-1.52179 -2.36572,-2.1582 -1.16215,-0.63637 -2.79463,-1.27277 -4.89746,-1.90918 -2.1029,-0.63637 -4.84215,-1.36961 -8.21778,-2.19971 -3.32033,-0.83005 -6.15643,-1.64629 -8.5083,-2.44873 -2.3519,-0.80238 -4.30258,-1.79847 -5.85205,-2.98828 -1.54949,-1.18975 -2.68392,-2.62855 -3.40332,-4.31641 -0.7194,-1.68779 -1.0791,-3.80448 -1.0791,-6.3501 0,-2.32417 0.48421,-4.4547 1.45264,-6.3916 0.96841,-1.9368 2.35188,-3.61079 4.15039,-5.02197 1.79849,-1.41108 3.98436,-2.51785 6.55761,-3.32031 2.57323,-0.80235 5.43699,-1.20356 8.59131,-1.20362 14.49866,6e-5 21.91402,5.17421 22.2461,15.52247 l -9.87793,0 c -0.33207,-5.25712 -4.2611,-7.8857 -11.78711,-7.88575 -1.54951,5e-5 -3.01598,0.15223 -4.39942,0.45655 -1.38348,0.30441 -2.60093,0.76095 -3.65234,1.36963 -1.05145,0.60877 -1.88153,1.38351 -2.49023,2.32421 -0.60874,0.9408 -0.91311,2.0199 -0.91309,3.23731 -2e-5,1.10681 0.11066,2.00606 0.33203,2.69775 0.22134,0.69177 0.83006,1.32817 1.82617,1.90918 0.99608,0.58109 2.50405,1.16215 4.52393,1.74317 2.01983,0.58109 4.82826,1.31432 8.42529,2.1997 3.32028,0.83011 6.22555,1.67403 8.71582,2.53174 2.4902,0.85778 4.55155,1.90921 6.18408,3.1543 1.63244,1.24514 2.86373,2.75312 3.69385,4.52392 0.83003,1.77086 1.24507,3.9844 1.24512,6.64063 -5e-5,2.43491 -0.51193,4.73146 -1.53565,6.88965 -1.02381,2.15821 -2.50411,4.02588 -4.44091,5.60303 -1.93689,1.57715 -4.28878,2.82226 -7.05567,3.73535 -2.76696,0.91308 -5.86591,1.36962 -9.29687,1.36963 z"
         style="font-family:Kartika;-inkscape-font-specification:Kartika"
         id="path3040" />
      <path
         d="m 739.88397,874.66797 c -1.1068,0.22135 -2.24124,0.38737 -3.40332,0.49805 -1.16213,0.11067 -2.37958,0.16601 -3.65234,0.16601 -3.09898,0 -5.53387,-0.38737 -7.30469,-1.16211 -1.77085,-0.77474 -3.08513,-1.89534 -3.94287,-3.36181 -0.85776,-1.46647 -1.38347,-3.25114 -1.57715,-5.35401 -0.19369,-2.10285 -0.29053,-4.48241 -0.29053,-7.13867 l 0,-31.45996 -6.80664,0 0,-7.80274 6.80664,0 0,-13.69628 9.87793,0 0,13.69628 8.96485,0 0,7.80274 -8.96485,0 0,31.95801 c -2e-5,1.93686 0.1245,3.48634 0.37354,4.64843 0.249,1.16212 0.59487,2.04754 1.0376,2.65625 0.44268,0.60874 1.0099,1.00994 1.70166,1.20362 0.69171,0.19369 1.45261,0.29053 2.28271,0.29052 0.88539,10e-6 1.72931,-0.0277 2.53174,-0.083 0.80238,-0.0553 1.59095,-0.16601 2.36572,-0.33203 z"
         style="font-family:Kartika;-inkscape-font-specification:Kartika"
         id="path3042" />
      <path
         d="m 758.14569,874.58496 -9.87793,0 0,-55.53223 9.87793,0 z m 0,-65.99121 -9.87793,0 0,-10.625 9.87793,0 z"
         style="font-family:Kartika;-inkscape-font-specification:Kartika"
         id="path3044" />
      <path
         d="m 795.25018,875.91309 c -3.81838,-10e-6 -7.31854,-0.62256 -10.50049,-1.86768 -3.18198,-1.24512 -5.92123,-3.09895 -8.21777,-5.56152 -2.29656,-2.46256 -4.06739,-5.49234 -5.3125,-9.08936 -1.24512,-3.59699 -1.86768,-7.77504 -1.86767,-12.53418 -1e-5,-4.70374 0.62255,-8.86796 1.86767,-12.49267 1.24511,-3.62463 3.01594,-6.65442 5.3125,-9.08936 2.29654,-2.43484 5.03579,-4.27485 8.21777,-5.52002 3.18195,-1.24506 6.68211,-1.86762 10.50049,-1.86768 3.15427,6e-5 6.03187,0.4151 8.63282,1.24512 2.60087,0.83013 4.86974,2.00608 6.80664,3.52783 1.9368,1.52186 3.50011,3.38954 4.68994,5.60303 1.18973,2.21359 1.95063,4.70382 2.28271,7.4707 l -10.12695,0 c -0.11072,-1.66011 -0.51192,-3.12658 -1.20361,-4.39941 -0.69178,-1.27274 -1.59103,-2.33801 -2.69776,-3.1958 -1.10681,-0.8577 -2.39343,-1.50793 -3.85986,-1.95068 -1.46651,-0.44266 -2.97448,-0.66402 -4.52393,-0.66407 -2.37958,5e-5 -4.53778,0.47043 -6.47461,1.41114 -1.93687,0.9408 -3.59702,2.31043 -4.98047,4.10888 -1.38348,1.79855 -2.46258,4.02592 -3.2373,6.68213 -0.77475,2.65629 -1.16212,5.6999 -1.16211,9.13086 -10e-6,6.91734 1.42495,12.18833 4.2749,15.81299 2.84992,3.62468 6.70978,5.43702 11.57959,5.43701 1.54945,10e-6 3.05742,-0.19368 4.52393,-0.58105 1.46643,-0.38737 2.75305,-0.99609 3.85986,-1.82618 1.10673,-0.83006 2.00598,-1.88149 2.69776,-3.15429 0.69169,-1.27278 1.09289,-2.79458 1.20361,-4.56543 l 10.12695,0 c -0.33208,2.93295 -1.13449,5.52003 -2.40722,7.76123 -1.27284,2.24122 -2.90532,4.10889 -4.89747,5.60303 -1.99223,1.49414 -4.27494,2.62858 -6.84814,3.40332 -2.57328,0.77474 -5.32637,1.1621 -8.25928,1.16211 z"
         style="font-family:Kartika;-inkscape-font-specification:Kartika"
         id="path3046" />
      <path
         d="m 875.02069,874.58496 -47.39746,0 0,-76.61621 10.04395,0 0,67.48535 37.35351,0 z"
         style="font-family:Kartika;-inkscape-font-specification:Kartika"
         id="path3048" />
      <path
         d="m 921.17303,859.97559 0,-12.28516 -6.72363,0 c -14.27736,3e-5 -21.41603,3.90139 -21.41601,11.7041 -2e-5,2.82228 1.02374,4.98048 3.07129,6.47461 2.0475,1.49415 4.89743,2.24122 8.5498,2.24121 1.60479,10e-6 3.19577,-0.17984 4.77295,-0.53955 1.57712,-0.35969 3.08509,-0.89924 4.52392,-1.61865 1.43877,-0.71939 2.78073,-1.57714 4.02588,-2.57324 1.24508,-0.99609 2.31035,-2.13052 3.1958,-3.40332 z m 0,8.88183 c -5.09118,4.70378 -11.56578,7.05566 -19.42382,7.05567 -2.71161,-10e-6 -5.22951,-0.38737 -7.55371,-1.16211 -2.32424,-0.77474 -4.33026,-1.86768 -6.01807,-3.27881 -1.68783,-1.41113 -3.00212,-3.09895 -3.94287,-5.06348 -0.94076,-1.96451 -1.41114,-4.13654 -1.41113,-6.51611 -10e-6,-13.00453 11.17837,-19.5068 33.53515,-19.50684 l 4.81445,0 c -4e-5,-2.54553 -0.11071,-4.75907 -0.33203,-6.64062 -0.22139,-1.88147 -0.76094,-3.43095 -1.61865,-4.64844 -0.85779,-1.2174 -2.17207,-2.11665 -3.94287,-2.69775 -1.77087,-0.58101 -4.23343,-0.87154 -7.3877,-0.87159 -8.85418,5e-5 -13.39194,3.15435 -13.61328,9.46289 l -9.79492,0 c 0.77473,-11.39968 8.74348,-17.09955 23.90625,-17.09961 3.54164,6e-5 6.70976,0.29059 9.5044,0.87159 2.79455,0.58111 5.16027,1.64637 7.09716,3.1958 1.9368,1.54953 3.41711,3.68006 4.44092,6.3916 1.02371,2.71163 1.53559,6.17029 1.53565,10.37598 l 0,35.85937 -9.79493,0 z"
         style="font-family:Kartika;-inkscape-font-specification:Kartika"
         id="path3050" />
      <path
         d="m 955.70428,825.69336 c 4.37173,-5.20177 9.65655,-7.80268 15.8545,-7.80274 3.59697,6e-5 6.8066,0.67796 9.6289,2.0337 2.82222,1.35584 5.20178,3.26502 7.13867,5.72754 1.9368,2.46261 3.41711,5.45089 4.44092,8.96484 1.02371,3.51403 1.53559,7.42923 1.53565,11.7456 -6e-5,4.48245 -0.58111,8.54983 -1.74317,12.20215 -1.16216,3.65236 -2.79464,6.76515 -4.89746,9.33838 -2.10291,2.57325 -4.59314,4.5516 -7.4707,5.93506 -2.87764,1.38346 -6.00427,2.07519 -9.37988,2.0752 -5.97659,-10e-6 -11.01239,-1.88151 -15.10743,-5.64454 l 0,4.31641 -9.87793,0 0,-76.61621 9.87793,0 z m 0,35.69336 c 4.15037,4.48243 8.99249,6.72364 14.52637,6.72363 4.31637,10e-6 7.70585,-1.79849 10.16846,-5.39551 2.46252,-3.59699 3.6938,-9.04783 3.69385,-16.35254 -5e-5,-6.91728 -1.16216,-12.1191 -3.48633,-15.60546 -2.32426,-3.48628 -5.64457,-5.22945 -9.96094,-5.2295 -5.4232,5e-5 -10.40367,3.18202 -14.94141,9.5459 z"
         style="font-family:Kartika;-inkscape-font-specification:Kartika"
         id="path3052" />
    </g>
    <g
       style="font-size:56px;font-style:normal;font-weight:normal;fill:#000000;fill-opacity:1;stroke:none;font-family:Candara;-inkscape-font-specification:Candara"
       id="text2820">
      <path
         d="m 432.90759,939.21674 -3.29687,0 -2.28125,-6.48438 -10.0625,0 -2.28125,6.48438 -3.14063,0 8.46875,-23.26563 4.125,0 z m -6.53125,-9.14063 -4.07812,-11.42187 -4.09375,11.42187 z"
         style="font-size:32px;font-variant:normal;font-stretch:normal;font-family:Verdana;-inkscape-font-specification:Verdana"
         id="path2822" />
      <path
         d="m 462.90759,922.98236 c -2e-5,1.03127 -0.1797,1.98699 -0.53906,2.86719 -0.35939,0.88022 -0.862,1.64324 -1.50781,2.28906 -0.8021,0.80209 -1.75002,1.40366 -2.84375,1.80469 -1.09376,0.40105 -2.47397,0.60157 -4.14063,0.60156 l -3.09375,0 0,8.67188 -3.09375,0 0,-23.26563 6.3125,0 c 1.39583,2e-5 2.57812,0.11721 3.54688,0.35156 0.96873,0.2344 1.82811,0.60159 2.57812,1.10157 0.8854,0.59377 1.5703,1.33335 2.05469,2.21875 0.48436,0.88543 0.72654,2.00522 0.72656,3.35937 z m -3.21875,0.0781 c -1e-5,-0.80207 -0.14064,-1.49999 -0.42187,-2.09375 -0.28127,-0.59374 -0.70835,-1.07811 -1.28125,-1.45313 -0.50002,-0.3229 -1.07033,-0.55467 -1.71094,-0.69531 -0.64064,-0.14061 -1.45053,-0.21092 -2.42969,-0.21094 l -3.0625,0 0,9.29688 2.60938,0 c 1.24999,1e-5 2.26561,-0.11197 3.04687,-0.33594 0.78124,-0.22395 1.41666,-0.58072 1.90625,-1.07031 0.48957,-0.49999 0.83593,-1.02603 1.03907,-1.57813 0.20311,-0.55207 0.30467,-1.17186 0.30468,-1.85937 z"
         style="font-size:32px;font-variant:normal;font-stretch:normal;font-family:Verdana;-inkscape-font-specification:Verdana"
         id="path2824" />
      <path
         d="m 480.32947,939.21674 -2.92188,0 0,-1.85938 c -0.26043,0.17709 -0.61199,0.42448 -1.05468,0.74219 -0.44273,0.31771 -0.87241,0.57031 -1.28907,0.75781 -0.48959,0.23958 -1.05209,0.4401 -1.6875,0.60156 -0.63542,0.16146 -1.38021,0.24219 -2.23437,0.24219 -1.57292,0 -2.90626,-0.52083 -4,-1.5625 -1.09375,-1.04166 -1.64063,-2.36979 -1.64063,-3.98437 0,-1.32291 0.28386,-2.39323 0.85157,-3.21094 0.5677,-0.8177 1.3776,-1.46093 2.42968,-1.92969 1.0625,-0.46874 2.33854,-0.78645 3.82813,-0.95312 1.48957,-0.16666 3.08853,-0.29166 4.79687,-0.375 l 0,-0.45313 c -1e-5,-0.66665 -0.1172,-1.21874 -0.35156,-1.65625 -0.23439,-0.43749 -0.57032,-0.78123 -1.00781,-1.03125 -0.41668,-0.23957 -0.91668,-0.40103 -1.5,-0.48437 -0.58335,-0.0833 -1.19272,-0.12499 -1.82813,-0.125 -0.77084,1e-5 -1.63021,0.10157 -2.57812,0.30468 -0.94792,0.20314 -1.92709,0.49741 -2.9375,0.88282 l -0.15625,0 0,-2.98438 c 0.57291,-0.15623 1.40103,-0.32811 2.48437,-0.51562 1.08333,-0.18749 2.15104,-0.28124 3.20313,-0.28125 1.22915,1e-5 2.29947,0.10158 3.21094,0.30468 0.91144,0.20315 1.7005,0.5495 2.36718,1.03907 0.65624,0.47918 1.15624,1.09897 1.5,1.85937 0.34374,0.76043 0.51561,1.70314 0.51563,2.82813 z m -2.92188,-4.29688 0,-4.85937 c -0.89584,0.0521 -1.95053,0.13021 -3.16406,0.23437 -1.21355,0.10418 -2.17449,0.25522 -2.88281,0.45313 -0.84376,0.23959 -1.52605,0.61198 -2.04688,1.11718 -0.52084,0.50522 -0.78125,1.20053 -0.78125,2.08594 0,1.00001 0.30208,1.75261 0.90625,2.25781 0.60416,0.50521 1.52604,0.75782 2.76563,0.75782 1.03124,0 1.97395,-0.20052 2.82812,-0.60157 0.85416,-0.40104 1.64582,-0.88281 2.375,-1.44531 z"
         style="font-size:32px;font-variant:normal;font-stretch:normal;font-family:Verdana;-inkscape-font-specification:Verdana"
         id="path2826" />
      <path
         d="m 496.90759,924.96674 -0.15625,0 c -0.43751,-0.10416 -0.86199,-0.17968 -1.27343,-0.22657 -0.41147,-0.0469 -0.89845,-0.0703 -1.46094,-0.0703 -0.90626,2e-5 -1.78126,0.20054 -2.625,0.60156 -0.84376,0.40106 -1.65626,0.91929 -2.4375,1.55469 l 0,12.39063 -2.9375,0 0,-17.45313 2.9375,0 0,2.57813 c 1.16666,-0.93749 2.1953,-1.60155 3.08594,-1.99219 0.89061,-0.39061 1.79946,-0.58592 2.72656,-0.58594 0.5104,2e-5 0.88019,0.013 1.10937,0.0391 0.22916,0.0261 0.57291,0.0755 1.03125,0.14844 z"
         style="font-size:32px;font-variant:normal;font-stretch:normal;font-family:Verdana;-inkscape-font-specification:Verdana"
         id="path2828" />
      <path
         d="m 513.26697,939.21674 -2.92188,0 0,-1.85938 c -0.26043,0.17709 -0.61199,0.42448 -1.05468,0.74219 -0.44273,0.31771 -0.87241,0.57031 -1.28907,0.75781 -0.48959,0.23958 -1.05209,0.4401 -1.6875,0.60156 -0.63542,0.16146 -1.38021,0.24219 -2.23437,0.24219 -1.57292,0 -2.90626,-0.52083 -4,-1.5625 -1.09375,-1.04166 -1.64063,-2.36979 -1.64063,-3.98437 0,-1.32291 0.28386,-2.39323 0.85157,-3.21094 0.5677,-0.8177 1.3776,-1.46093 2.42968,-1.92969 1.0625,-0.46874 2.33854,-0.78645 3.82813,-0.95312 1.48957,-0.16666 3.08853,-0.29166 4.79687,-0.375 l 0,-0.45313 c -1e-5,-0.66665 -0.1172,-1.21874 -0.35156,-1.65625 -0.23439,-0.43749 -0.57032,-0.78123 -1.00781,-1.03125 -0.41668,-0.23957 -0.91668,-0.40103 -1.5,-0.48437 -0.58335,-0.0833 -1.19272,-0.12499 -1.82813,-0.125 -0.77084,1e-5 -1.63021,0.10157 -2.57812,0.30468 -0.94792,0.20314 -1.92709,0.49741 -2.9375,0.88282 l -0.15625,0 0,-2.98438 c 0.57291,-0.15623 1.40103,-0.32811 2.48437,-0.51562 1.08333,-0.18749 2.15104,-0.28124 3.20313,-0.28125 1.22915,1e-5 2.29947,0.10158 3.21094,0.30468 0.91144,0.20315 1.7005,0.5495 2.36718,1.03907 0.65624,0.47918 1.15624,1.09897 1.5,1.85937 0.34374,0.76043 0.51561,1.70314 0.51563,2.82813 z m -2.92188,-4.29688 0,-4.85937 c -0.89584,0.0521 -1.95053,0.13021 -3.16406,0.23437 -1.21355,0.10418 -2.17449,0.25522 -2.88281,0.45313 -0.84376,0.23959 -1.52605,0.61198 -2.04688,1.11718 -0.52084,0.50522 -0.78125,1.20053 -0.78125,2.08594 0,1.00001 0.30208,1.75261 0.90625,2.25781 0.60416,0.50521 1.52604,0.75782 2.76563,0.75782 1.03124,0 1.97395,-0.20052 2.82812,-0.60157 0.85416,-0.40104 1.64582,-0.88281 2.375,-1.44531 z"
         style="font-size:32px;font-variant:normal;font-stretch:normal;font-family:Verdana;-inkscape-font-specification:Verdana"
         id="path2830" />
      <path
         d="m 533.11072,939.21674 -2.9375,0 0,-1.82813 c -0.84377,0.72917 -1.72397,1.29688 -2.64063,1.70313 -0.91667,0.40625 -1.91147,0.60937 -2.98437,0.60937 -2.08334,0 -3.73699,-0.80208 -4.96094,-2.40625 -1.22396,-1.60416 -1.83594,-3.82812 -1.83594,-6.67187 0,-1.47916 0.21094,-2.79687 0.63282,-3.95313 0.42187,-1.15624 0.99218,-2.14061 1.71093,-2.95312 0.70833,-0.79165 1.53385,-1.39582 2.47657,-1.8125 0.9427,-0.41665 1.91926,-0.62499 2.92968,-0.625 0.91666,1e-5 1.72916,0.0964 2.4375,0.28906 0.70832,0.19272 1.45311,0.4922 2.23438,0.89844 l 0,-7.5625 2.9375,0 z m -2.9375,-4.29688 0,-10.01562 c -0.79168,-0.35416 -1.50001,-0.59895 -2.125,-0.73438 -0.62501,-0.1354 -1.3073,-0.20311 -2.04688,-0.20312 -1.64584,1e-5 -2.92709,0.57293 -3.84375,1.71875 -0.91667,1.14584 -1.375,2.77084 -1.375,4.875 0,2.07292 0.35416,3.64844 1.0625,4.72656 0.70833,1.07813 1.84375,1.61719 3.40625,1.61719 0.83333,0 1.67708,-0.1849 2.53125,-0.55469 0.85416,-0.36979 1.65103,-0.84635 2.39063,-1.42969 z"
         style="font-size:32px;font-variant:normal;font-stretch:normal;font-family:Verdana;-inkscape-font-specification:Verdana"
         id="path2832" />
      <path
         d="m 542.04822,918.84174 -3.3125,0 0,-3.04688 3.3125,0 z m -0.1875,20.375 -2.9375,0 0,-17.45313 2.9375,0 z"
         style="font-size:32px;font-variant:normal;font-stretch:normal;font-family:Verdana;-inkscape-font-specification:Verdana"
         id="path2834" />
      <path
         d="m 561.86072,937.23236 c -2e-5,2.95833 -0.67189,5.13021 -2.01563,6.51563 -1.34376,1.38541 -3.41147,2.07811 -6.20312,2.07812 -0.92709,-10e-6 -1.83074,-0.0651 -2.71094,-0.19531 -0.88021,-0.13022 -1.7474,-0.31511 -2.60156,-0.55469 l 0,-3 0.15625,0 c 0.47916,0.1875 1.23958,0.41927 2.28125,0.69531 1.04166,0.27604 2.08332,0.41406 3.125,0.41407 0.99999,-10e-6 1.82811,-0.1198 2.48437,-0.35938 0.65624,-0.23959 1.16666,-0.57292 1.53125,-1 0.36457,-0.40625 0.62499,-0.89583 0.78125,-1.46875 0.15624,-0.57292 0.23436,-1.21354 0.23438,-1.92187 l 0,-1.59375 c -0.88543,0.70833 -1.73179,1.23698 -2.53906,1.58593 -0.80731,0.34896 -1.83595,0.52344 -3.08594,0.52344 -2.08334,0 -3.73699,-0.7526 -4.96094,-2.25781 -1.22396,-1.50521 -1.83594,-3.6276 -1.83594,-6.36719 0,-1.49999 0.21094,-2.79426 0.63282,-3.88281 0.42187,-1.08853 0.99739,-2.02863 1.72656,-2.82031 0.67708,-0.73957 1.49999,-1.31509 2.46875,-1.72657 0.96874,-0.41144 1.93228,-0.61717 2.89062,-0.61718 1.01041,1e-5 1.85676,0.10158 2.53907,0.30468 0.68227,0.20315 1.40363,0.51304 2.16406,0.92969 l 0.1875,-0.75 2.75,0 z m -2.9375,-2.8125 0,-9.51562 c -0.78127,-0.35416 -1.50783,-0.60676 -2.17969,-0.75782 -0.67189,-0.15102 -1.34116,-0.22654 -2.00781,-0.22656 -1.61459,2e-5 -2.88543,0.54168 -3.8125,1.625 -0.92709,1.08335 -1.39063,2.65626 -1.39063,4.71875 0,1.95834 0.34375,3.44271 1.03125,4.45313 0.6875,1.01042 1.82812,1.51562 3.42188,1.51562 0.85415,0 1.71092,-0.16406 2.57031,-0.49219 0.85936,-0.32812 1.64842,-0.76822 2.36719,-1.32031 z"
         style="font-size:32px;font-variant:normal;font-stretch:normal;font-family:Verdana;-inkscape-font-specification:Verdana"
         id="path2836" />
      <path
         d="m 593.11072,939.21674 -2.9375,0 0,-9.9375 c -3e-5,-0.74999 -0.0339,-1.47395 -0.10156,-2.17188 -0.0677,-0.6979 -0.21097,-1.25519 -0.42969,-1.67187 -0.23961,-0.44791 -0.58336,-0.78645 -1.03125,-1.01563 -0.44794,-0.22915 -1.09377,-0.34373 -1.9375,-0.34375 -0.82294,2e-5 -1.64586,0.20574 -2.46875,0.61719 -0.82294,0.41147 -1.64585,0.93491 -2.46875,1.57031 0.0312,0.2396 0.0573,0.51824 0.0781,0.83594 0.0208,0.31772 0.0312,0.63282 0.0312,0.94531 l 0,11.17188 -2.9375,0 0,-9.9375 c -10e-6,-0.77083 -0.0339,-1.5026 -0.10156,-2.19532 -0.0677,-0.69269 -0.21095,-1.24738 -0.42969,-1.66406 -0.23959,-0.4479 -0.58334,-0.78384 -1.03125,-1.00781 -0.44793,-0.22394 -1.09376,-0.33592 -1.9375,-0.33594 -0.80209,2e-5 -1.60678,0.19793 -2.41406,0.59375 -0.8073,0.39585 -1.61199,0.90106 -2.41406,1.51563 l 0,13.03125 -2.9375,0 0,-17.45313 2.9375,0 0,1.9375 c 0.91666,-0.7604 1.83072,-1.35415 2.74219,-1.78125 0.91144,-0.42706 1.8828,-0.64061 2.91406,-0.64062 1.18749,1e-5 2.1953,0.25001 3.02344,0.75 0.8281,0.50001 1.44529,1.19272 1.85156,2.07812 1.18748,-0.99998 2.27081,-1.72134 3.25,-2.16406 0.97914,-0.44269 2.02602,-0.66405 3.14062,-0.66406 1.91664,1e-5 3.33071,0.58074 4.24219,1.74218 0.91143,1.16148 1.36716,2.78387 1.36719,4.86719 z"
         style="font-size:32px;font-variant:normal;font-stretch:normal;font-family:Verdana;-inkscape-font-specification:Verdana"
         id="path2838" />
      <path
         d="m 608.01697,930.45111 -9.75,0 0,-2.82812 9.75,0 z"
         style="font-size:32px;font-variant:normal;font-stretch:normal;font-family:Verdana;-inkscape-font-specification:Verdana"
         id="path2840" />
      <path
         d="m 621.76697,939.21674 -9.1875,0 0,-2.375 3.04687,0 0,-18.51563 -3.04687,0 0,-2.375 9.1875,0 0,2.375 -3.04688,0 0,18.51563 3.04688,0 z"
         style="font-size:32px;font-variant:normal;font-stretch:normal;font-family:Verdana;-inkscape-font-specification:Verdana"
         id="path2842" />
      <path
         d="m 641.42322,939.21674 -2.9375,0 0,-9.9375 c -2e-5,-0.80208 -0.0469,-1.55468 -0.14063,-2.25782 -0.0938,-0.70311 -0.26564,-1.25259 -0.51562,-1.64843 -0.26043,-0.43749 -0.63543,-0.76301 -1.125,-0.97657 -0.4896,-0.21352 -1.12501,-0.32029 -1.90625,-0.32031 -0.8021,2e-5 -1.64064,0.19793 -2.51563,0.59375 -0.875,0.39585 -1.71355,0.90106 -2.51562,1.51563 l 0,13.03125 -2.9375,0 0,-17.45313 2.9375,0 0,1.9375 c 0.91666,-0.7604 1.86457,-1.35415 2.84375,-1.78125 0.97915,-0.42706 1.98436,-0.64061 3.01562,-0.64062 1.88541,1e-5 3.3229,0.56772 4.3125,1.70312 0.98957,1.13543 1.48436,2.77085 1.48438,4.90625 z"
         style="font-size:32px;font-variant:normal;font-stretch:normal;font-family:Verdana;-inkscape-font-specification:Verdana"
         id="path2844" />
      <path
         d="m 661.23572,939.21674 -2.9375,0 0,-1.82813 c -0.84377,0.72917 -1.72397,1.29688 -2.64063,1.70313 -0.91667,0.40625 -1.91147,0.60937 -2.98437,0.60937 -2.08334,0 -3.73699,-0.80208 -4.96094,-2.40625 -1.22396,-1.60416 -1.83594,-3.82812 -1.83594,-6.67187 0,-1.47916 0.21094,-2.79687 0.63282,-3.95313 0.42187,-1.15624 0.99218,-2.14061 1.71093,-2.95312 0.70833,-0.79165 1.53385,-1.39582 2.47657,-1.8125 0.9427,-0.41665 1.91926,-0.62499 2.92968,-0.625 0.91666,1e-5 1.72916,0.0964 2.4375,0.28906 0.70832,0.19272 1.45311,0.4922 2.23438,0.89844 l 0,-7.5625 2.9375,0 z m -2.9375,-4.29688 0,-10.01562 c -0.79168,-0.35416 -1.50001,-0.59895 -2.125,-0.73438 -0.62501,-0.1354 -1.3073,-0.20311 -2.04688,-0.20312 -1.64584,1e-5 -2.92709,0.57293 -3.84375,1.71875 -0.91667,1.14584 -1.375,2.77084 -1.375,4.875 0,2.07292 0.35416,3.64844 1.0625,4.72656 0.70833,1.07813 1.84375,1.61719 3.40625,1.61719 0.83333,0 1.67708,-0.1849 2.53125,-0.55469 0.85416,-0.36979 1.65103,-0.84635 2.39063,-1.42969 z"
         style="font-size:32px;font-variant:normal;font-stretch:normal;font-family:Verdana;-inkscape-font-specification:Verdana"
         id="path2846" />
      <path
         d="m 681.62634,930.79486 -12.85937,0 c -10e-6,1.07292 0.16145,2.00782 0.48437,2.80469 0.32291,0.79688 0.76562,1.45052 1.32813,1.96094 0.54166,0.5 1.18489,0.875 1.92969,1.125 0.74478,0.25 1.56509,0.375 2.46093,0.375 1.18749,0 2.3828,-0.23698 3.58594,-0.71094 1.20311,-0.47396 2.05988,-0.9401 2.57031,-1.39844 l 0.15625,0 0,3.20313 c -0.9896,0.41666 -2.00001,0.76562 -3.03125,1.04687 -1.03126,0.28125 -2.11459,0.42188 -3.25,0.42188 -2.89584,0 -5.15625,-0.78386 -6.78125,-2.35157 -1.625,-1.5677 -2.4375,-3.79426 -2.4375,-6.67968 0,-2.85416 0.77865,-5.11978 2.33594,-6.79688 1.55729,-1.67707 3.60676,-2.51561 6.14844,-2.51562 2.35415,1e-5 4.16925,0.68751 5.44531,2.0625 1.27603,1.37501 1.91405,3.32813 1.91406,5.85937 z m -2.85937,-2.25 c -0.0104,-1.54165 -0.39845,-2.73436 -1.16406,-3.57812 -0.76564,-0.84374 -1.9297,-1.26561 -3.49219,-1.26563 -1.57293,2e-5 -2.82553,0.46356 -3.75781,1.39063 -0.9323,0.92709 -1.46095,2.07813 -1.58594,3.45312 z"
         style="font-size:32px;font-variant:normal;font-stretch:normal;font-family:Verdana;-inkscape-font-specification:Verdana"
         id="path2848" />
      <path
         d="m 701.43884,930.27924 c -2e-5,1.41667 -0.20314,2.71094 -0.60937,3.88281 -0.40627,1.17188 -0.97919,2.16406 -1.71875,2.97656 -0.68752,0.77084 -1.49741,1.36719 -2.42969,1.78906 -0.9323,0.42188 -1.91928,0.63282 -2.96094,0.63282 -0.90626,0 -1.72657,-0.099 -2.46093,-0.29688 -0.73439,-0.19792 -1.48178,-0.50521 -2.24219,-0.92187 l 0,7.3125 -2.9375,0 0,-23.89063 2.9375,0 0,1.82813 c 0.78124,-0.65624 1.65884,-1.20572 2.63281,-1.64844 0.97395,-0.44269 2.01301,-0.66405 3.11719,-0.66406 2.10415,1e-5 3.74217,0.79428 4.91406,2.38281 1.17186,1.58855 1.75779,3.79428 1.75781,6.61719 z m -3.03125,0.0781 c -10e-6,-2.10415 -0.35939,-3.67707 -1.07812,-4.71875 -0.71877,-1.04165 -1.82293,-1.56248 -3.3125,-1.5625 -0.84376,2e-5 -1.69272,0.18231 -2.54688,0.54688 -0.85417,0.36459 -1.67188,0.84376 -2.45312,1.4375 l 0,9.89062 c 0.83332,0.375 1.54947,0.63021 2.14844,0.76563 0.59895,0.13541 1.27863,0.20312 2.03906,0.20312 1.6354,0 2.91144,-0.55208 3.82812,-1.65625 0.91665,-1.10416 1.37499,-2.73958 1.375,-4.90625 z"
         style="font-size:32px;font-variant:normal;font-stretch:normal;font-family:Verdana;-inkscape-font-specification:Verdana"
         id="path2850" />
      <path
         d="m 720.62634,930.79486 -12.85937,0 c -10e-6,1.07292 0.16145,2.00782 0.48437,2.80469 0.32291,0.79688 0.76562,1.45052 1.32813,1.96094 0.54166,0.5 1.18489,0.875 1.92969,1.125 0.74478,0.25 1.56509,0.375 2.46093,0.375 1.18749,0 2.3828,-0.23698 3.58594,-0.71094 1.20311,-0.47396 2.05988,-0.9401 2.57031,-1.39844 l 0.15625,0 0,3.20313 c -0.9896,0.41666 -2.00001,0.76562 -3.03125,1.04687 -1.03126,0.28125 -2.11459,0.42188 -3.25,0.42188 -2.89584,0 -5.15625,-0.78386 -6.78125,-2.35157 -1.625,-1.5677 -2.4375,-3.79426 -2.4375,-6.67968 0,-2.85416 0.77865,-5.11978 2.33594,-6.79688 1.55729,-1.67707 3.60676,-2.51561 6.14844,-2.51562 2.35415,1e-5 4.16925,0.68751 5.44531,2.0625 1.27603,1.37501 1.91405,3.32813 1.91406,5.85937 z m -2.85937,-2.25 c -0.0104,-1.54165 -0.39845,-2.73436 -1.16406,-3.57812 -0.76564,-0.84374 -1.9297,-1.26561 -3.49219,-1.26563 -1.57293,2e-5 -2.82553,0.46356 -3.75781,1.39063 -0.9323,0.92709 -1.46095,2.07813 -1.58594,3.45312 z"
         style="font-size:32px;font-variant:normal;font-stretch:normal;font-family:Verdana;-inkscape-font-specification:Verdana"
         id="path2852" />
      <path
         d="m 739.67322,939.21674 -2.9375,0 0,-9.9375 c -2e-5,-0.80208 -0.0469,-1.55468 -0.14063,-2.25782 -0.0938,-0.70311 -0.26564,-1.25259 -0.51562,-1.64843 -0.26043,-0.43749 -0.63543,-0.76301 -1.125,-0.97657 -0.4896,-0.21352 -1.12501,-0.32029 -1.90625,-0.32031 -0.8021,2e-5 -1.64064,0.19793 -2.51563,0.59375 -0.875,0.39585 -1.71355,0.90106 -2.51562,1.51563 l 0,13.03125 -2.9375,0 0,-17.45313 2.9375,0 0,1.9375 c 0.91666,-0.7604 1.86457,-1.35415 2.84375,-1.78125 0.97915,-0.42706 1.98436,-0.64061 3.01562,-0.64062 1.88541,1e-5 3.3229,0.56772 4.3125,1.70312 0.98957,1.13543 1.48436,2.77085 1.48438,4.90625 z"
         style="font-size:32px;font-variant:normal;font-stretch:normal;font-family:Verdana;-inkscape-font-specification:Verdana"
         id="path2854" />
      <path
         d="m 759.48572,939.21674 -2.9375,0 0,-1.82813 c -0.84377,0.72917 -1.72397,1.29688 -2.64063,1.70313 -0.91667,0.40625 -1.91147,0.60937 -2.98437,0.60937 -2.08334,0 -3.73699,-0.80208 -4.96094,-2.40625 -1.22396,-1.60416 -1.83594,-3.82812 -1.83594,-6.67187 0,-1.47916 0.21094,-2.79687 0.63282,-3.95313 0.42187,-1.15624 0.99218,-2.14061 1.71093,-2.95312 0.70833,-0.79165 1.53385,-1.39582 2.47657,-1.8125 0.9427,-0.41665 1.91926,-0.62499 2.92968,-0.625 0.91666,1e-5 1.72916,0.0964 2.4375,0.28906 0.70832,0.19272 1.45311,0.4922 2.23438,0.89844 l 0,-7.5625 2.9375,0 z m -2.9375,-4.29688 0,-10.01562 c -0.79168,-0.35416 -1.50001,-0.59895 -2.125,-0.73438 -0.62501,-0.1354 -1.3073,-0.20311 -2.04688,-0.20312 -1.64584,1e-5 -2.92709,0.57293 -3.84375,1.71875 -0.91667,1.14584 -1.375,2.77084 -1.375,4.875 0,2.07292 0.35416,3.64844 1.0625,4.72656 0.70833,1.07813 1.84375,1.61719 3.40625,1.61719 0.83333,0 1.67708,-0.1849 2.53125,-0.55469 0.85416,-0.36979 1.65103,-0.84635 2.39063,-1.42969 z"
         style="font-size:32px;font-variant:normal;font-stretch:normal;font-family:Verdana;-inkscape-font-specification:Verdana"
         id="path2856" />
      <path
         d="m 779.87634,930.79486 -12.85937,0 c -10e-6,1.07292 0.16145,2.00782 0.48437,2.80469 0.32291,0.79688 0.76562,1.45052 1.32813,1.96094 0.54166,0.5 1.18489,0.875 1.92969,1.125 0.74478,0.25 1.56509,0.375 2.46093,0.375 1.18749,0 2.3828,-0.23698 3.58594,-0.71094 1.20311,-0.47396 2.05988,-0.9401 2.57031,-1.39844 l 0.15625,0 0,3.20313 c -0.9896,0.41666 -2.00001,0.76562 -3.03125,1.04687 -1.03126,0.28125 -2.11459,0.42188 -3.25,0.42188 -2.89584,0 -5.15625,-0.78386 -6.78125,-2.35157 -1.625,-1.5677 -2.4375,-3.79426 -2.4375,-6.67968 0,-2.85416 0.77865,-5.11978 2.33594,-6.79688 1.55729,-1.67707 3.60676,-2.51561 6.14844,-2.51562 2.35415,1e-5 4.16925,0.68751 5.44531,2.0625 1.27603,1.37501 1.91405,3.32813 1.91406,5.85937 z m -2.85937,-2.25 c -0.0104,-1.54165 -0.39845,-2.73436 -1.16406,-3.57812 -0.76564,-0.84374 -1.9297,-1.26561 -3.49219,-1.26563 -1.57293,2e-5 -2.82553,0.46356 -3.75781,1.39063 -0.9323,0.92709 -1.46095,2.07813 -1.58594,3.45312 z"
         style="font-size:32px;font-variant:normal;font-stretch:normal;font-family:Verdana;-inkscape-font-specification:Verdana"
         id="path2858" />
      <path
         d="m 798.92322,939.21674 -2.9375,0 0,-9.9375 c -2e-5,-0.80208 -0.0469,-1.55468 -0.14063,-2.25782 -0.0938,-0.70311 -0.26564,-1.25259 -0.51562,-1.64843 -0.26043,-0.43749 -0.63543,-0.76301 -1.125,-0.97657 -0.4896,-0.21352 -1.12501,-0.32029 -1.90625,-0.32031 -0.8021,2e-5 -1.64064,0.19793 -2.51563,0.59375 -0.875,0.39585 -1.71355,0.90106 -2.51562,1.51563 l 0,13.03125 -2.9375,0 0,-17.45313 2.9375,0 0,1.9375 c 0.91666,-0.7604 1.86457,-1.35415 2.84375,-1.78125 0.97915,-0.42706 1.98436,-0.64061 3.01562,-0.64062 1.88541,1e-5 3.3229,0.56772 4.3125,1.70312 0.98957,1.13543 1.48436,2.77085 1.48438,4.90625 z"
         style="font-size:32px;font-variant:normal;font-stretch:normal;font-family:Verdana;-inkscape-font-specification:Verdana"
         id="path2860" />
      <path
         d="m 813.64197,939.06049 c -0.5521,0.14583 -1.15366,0.26562 -1.80469,0.35937 -0.65105,0.0937 -1.23178,0.14063 -1.74219,0.14063 -1.78125,0 -3.13542,-0.47917 -4.0625,-1.4375 -0.92708,-0.95834 -1.39063,-2.49479 -1.39062,-4.60938 l 0,-9.28125 -1.98438,0 0,-2.46875 1.98438,0 0,-5.01562 2.9375,0 0,5.01562 6.0625,0 0,2.46875 -6.0625,0 0,7.95313 c -10e-6,0.91667 0.0208,1.63281 0.0625,2.14843 0.0417,0.51563 0.18749,0.9974 0.4375,1.44532 0.22916,0.41667 0.54426,0.72135 0.94531,0.91406 0.40103,0.19271 1.01301,0.28906 1.83594,0.28906 0.47915,0 0.97915,-0.0703 1.5,-0.21094 0.52082,-0.14062 0.89582,-0.25781 1.125,-0.35156 l 0.15625,0 z"
         style="font-size:32px;font-variant:normal;font-stretch:normal;font-family:Verdana;-inkscape-font-specification:Verdana"
         id="path2862" />
      <path
         d="m 842.01697,939.21674 -2.92188,0 0,-1.85938 c -0.26043,0.17709 -0.61199,0.42448 -1.05468,0.74219 -0.44273,0.31771 -0.87241,0.57031 -1.28907,0.75781 -0.48959,0.23958 -1.05209,0.4401 -1.6875,0.60156 -0.63542,0.16146 -1.38021,0.24219 -2.23437,0.24219 -1.57292,0 -2.90626,-0.52083 -4,-1.5625 -1.09375,-1.04166 -1.64063,-2.36979 -1.64063,-3.98437 0,-1.32291 0.28386,-2.39323 0.85157,-3.21094 0.5677,-0.8177 1.3776,-1.46093 2.42968,-1.92969 1.0625,-0.46874 2.33854,-0.78645 3.82813,-0.95312 1.48957,-0.16666 3.08853,-0.29166 4.79687,-0.375 l 0,-0.45313 c -10e-6,-0.66665 -0.1172,-1.21874 -0.35156,-1.65625 -0.23439,-0.43749 -0.57032,-0.78123 -1.00781,-1.03125 -0.41668,-0.23957 -0.91668,-0.40103 -1.5,-0.48437 -0.58335,-0.0833 -1.19272,-0.12499 -1.82813,-0.125 -0.77084,1e-5 -1.63021,0.10157 -2.57812,0.30468 -0.94792,0.20314 -1.92709,0.49741 -2.9375,0.88282 l -0.15625,0 0,-2.98438 c 0.57291,-0.15623 1.40103,-0.32811 2.48437,-0.51562 1.08333,-0.18749 2.15104,-0.28124 3.20313,-0.28125 1.22915,1e-5 2.29947,0.10158 3.21094,0.30468 0.91144,0.20315 1.7005,0.5495 2.36718,1.03907 0.65624,0.47918 1.15624,1.09897 1.5,1.85937 0.34374,0.76043 0.51561,1.70314 0.51563,2.82813 z m -2.92188,-4.29688 0,-4.85937 c -0.89584,0.0521 -1.95053,0.13021 -3.16406,0.23437 -1.21355,0.10418 -2.17449,0.25522 -2.88281,0.45313 -0.84376,0.23959 -1.52605,0.61198 -2.04688,1.11718 -0.52084,0.50522 -0.78125,1.20053 -0.78125,2.08594 0,1.00001 0.30208,1.75261 0.90625,2.25781 0.60416,0.50521 1.52604,0.75782 2.76563,0.75782 1.03124,0 1.97395,-0.20052 2.82812,-0.60157 0.85416,-0.40104 1.64582,-0.88281 2.375,-1.44531 z"
         style="font-size:32px;font-variant:normal;font-stretch:normal;font-family:Verdana;-inkscape-font-specification:Verdana"
         id="path2864" />
      <path
         d="m 862.29822,939.21674 -2.9375,0 0,-9.9375 c -2e-5,-0.80208 -0.0469,-1.55468 -0.14063,-2.25782 -0.0938,-0.70311 -0.26564,-1.25259 -0.51562,-1.64843 -0.26043,-0.43749 -0.63543,-0.76301 -1.125,-0.97657 -0.4896,-0.21352 -1.12501,-0.32029 -1.90625,-0.32031 -0.8021,2e-5 -1.64064,0.19793 -2.51563,0.59375 -0.875,0.39585 -1.71355,0.90106 -2.51562,1.51563 l 0,13.03125 -2.9375,0 0,-17.45313 2.9375,0 0,1.9375 c 0.91666,-0.7604 1.86457,-1.35415 2.84375,-1.78125 0.97915,-0.42706 1.98436,-0.64061 3.01562,-0.64062 1.88541,1e-5 3.3229,0.56772 4.3125,1.70312 0.98957,1.13543 1.48436,2.77085 1.48438,4.90625 z"
         style="font-size:32px;font-variant:normal;font-stretch:normal;font-family:Verdana;-inkscape-font-specification:Verdana"
         id="path2866" />
      <path
         d="m 882.11072,939.21674 -2.9375,0 0,-1.82813 c -0.84377,0.72917 -1.72397,1.29688 -2.64063,1.70313 -0.91667,0.40625 -1.91147,0.60937 -2.98437,0.60937 -2.08334,0 -3.73699,-0.80208 -4.96094,-2.40625 -1.22396,-1.60416 -1.83594,-3.82812 -1.83594,-6.67187 0,-1.47916 0.21094,-2.79687 0.63282,-3.95313 0.42187,-1.15624 0.99218,-2.14061 1.71093,-2.95312 0.70833,-0.79165 1.53385,-1.39582 2.47657,-1.8125 0.9427,-0.41665 1.91926,-0.62499 2.92968,-0.625 0.91666,1e-5 1.72916,0.0964 2.4375,0.28906 0.70832,0.19272 1.45311,0.4922 2.23438,0.89844 l 0,-7.5625 2.9375,0 z m -2.9375,-4.29688 0,-10.01562 c -0.79168,-0.35416 -1.50001,-0.59895 -2.125,-0.73438 -0.62501,-0.1354 -1.3073,-0.20311 -2.04688,-0.20312 -1.64584,1e-5 -2.92709,0.57293 -3.84375,1.71875 -0.91667,1.14584 -1.375,2.77084 -1.375,4.875 0,2.07292 0.35416,3.64844 1.0625,4.72656 0.70833,1.07813 1.84375,1.61719 3.40625,1.61719 0.83333,0 1.67708,-0.1849 2.53125,-0.55469 0.85416,-0.36979 1.65103,-0.84635 2.39063,-1.42969 z"
         style="font-size:32px;font-variant:normal;font-stretch:normal;font-family:Verdana;-inkscape-font-specification:Verdana"
         id="path2868" />
      <path
         d="m 914.70447,939.21674 -15.32813,0 0,-23.26563 15.32813,0 0,2.75 -12.23438,0 0,6.375 12.23438,0 0,2.75 -12.23438,0 0,8.64063 12.23438,0 z"
         style="font-size:32px;font-variant:normal;font-stretch:normal;font-family:Verdana;-inkscape-font-specification:Verdana"
         id="path2870" />
      <path
         d="m 934.50134,939.21674 -3.70312,0 -4.95313,-6.70313 -4.98437,6.70313 -3.42188,0 6.8125,-8.70313 -6.75,-8.75 3.70313,0 4.92187,6.59375 4.9375,-6.59375 3.4375,0 -6.85937,8.59375 z"
         style="font-size:32px;font-variant:normal;font-stretch:normal;font-family:Verdana;-inkscape-font-specification:Verdana"
         id="path2872" />
      <path
         d="m 947.39197,939.06049 c -0.5521,0.14583 -1.15366,0.26562 -1.80469,0.35937 -0.65105,0.0937 -1.23178,0.14063 -1.74219,0.14063 -1.78125,0 -3.13542,-0.47917 -4.0625,-1.4375 -0.92708,-0.95834 -1.39063,-2.49479 -1.39062,-4.60938 l 0,-9.28125 -1.98438,0 0,-2.46875 1.98438,0 0,-5.01562 2.9375,0 0,5.01562 6.0625,0 0,2.46875 -6.0625,0 0,7.95313 c -10e-6,0.91667 0.0208,1.63281 0.0625,2.14843 0.0417,0.51563 0.18749,0.9974 0.4375,1.44532 0.22916,0.41667 0.54426,0.72135 0.94531,0.91406 0.40103,0.19271 1.01301,0.28906 1.83594,0.28906 0.47915,0 0.97915,-0.0703 1.5,-0.21094 0.52082,-0.14062 0.89582,-0.25781 1.125,-0.35156 l 0.15625,0 z"
         style="font-size:32px;font-variant:normal;font-stretch:normal;font-family:Verdana;-inkscape-font-specification:Verdana"
         id="path2874" />
      <path
         d="m 965.56384,930.79486 -12.85937,0 c -10e-6,1.07292 0.16145,2.00782 0.48437,2.80469 0.32291,0.79688 0.76562,1.45052 1.32813,1.96094 0.54166,0.5 1.18489,0.875 1.92969,1.125 0.74478,0.25 1.56509,0.375 2.46093,0.375 1.18749,0 2.3828,-0.23698 3.58594,-0.71094 1.20311,-0.47396 2.05988,-0.9401 2.57031,-1.39844 l 0.15625,0 0,3.20313 c -0.9896,0.41666 -2.00001,0.76562 -3.03125,1.04687 -1.03126,0.28125 -2.11459,0.42188 -3.25,0.42188 -2.89584,0 -5.15625,-0.78386 -6.78125,-2.35157 -1.625,-1.5677 -2.4375,-3.79426 -2.4375,-6.67968 0,-2.85416 0.77865,-5.11978 2.33594,-6.79688 1.55729,-1.67707 3.60676,-2.51561 6.14844,-2.51562 2.35415,1e-5 4.16925,0.68751 5.44531,2.0625 1.27603,1.37501 1.91405,3.32813 1.91406,5.85937 z m -2.85937,-2.25 c -0.0104,-1.54165 -0.39845,-2.73436 -1.16406,-3.57812 -0.76564,-0.84374 -1.9297,-1.26561 -3.49219,-1.26563 -1.57293,2e-5 -2.82553,0.46356 -3.75781,1.39063 -0.9323,0.92709 -1.46095,2.07813 -1.58594,3.45312 z"
         style="font-size:32px;font-variant:normal;font-stretch:normal;font-family:Verdana;-inkscape-font-specification:Verdana"
         id="path2876" />
      <path
         d="m 984.61072,939.21674 -2.9375,0 0,-9.9375 c -2e-5,-0.80208 -0.0469,-1.55468 -0.14063,-2.25782 -0.0938,-0.70311 -0.26564,-1.25259 -0.51562,-1.64843 -0.26043,-0.43749 -0.63543,-0.76301 -1.125,-0.97657 -0.4896,-0.21352 -1.12501,-0.32029 -1.90625,-0.32031 -0.8021,2e-5 -1.64064,0.19793 -2.51563,0.59375 -0.875,0.39585 -1.71355,0.90106 -2.51562,1.51563 l 0,13.03125 -2.9375,0 0,-17.45313 2.9375,0 0,1.9375 c 0.91666,-0.7604 1.86457,-1.35415 2.84375,-1.78125 0.97915,-0.42706 1.98436,-0.64061 3.01562,-0.64062 1.88541,1e-5 3.3229,0.56772 4.3125,1.70312 0.98957,1.13543 1.48436,2.77085 1.48438,4.90625 z"
         style="font-size:32px;font-variant:normal;font-stretch:normal;font-family:Verdana;-inkscape-font-specification:Verdana"
         id="path2878" />
      <path
         d="m 1002.7357,934.18549 c 0,1.59375 -0.6589,2.90104 -1.9765,3.92187 -1.31777,1.02083 -3.11724,1.53125 -5.39848,1.53125 -1.29168,0 -2.47657,-0.15365 -3.55469,-0.46094 -1.07813,-0.30729 -1.98177,-0.64323 -2.71094,-1.00781 l 0,-3.29687 0.15625,0 c 0.92708,0.69792 1.95833,1.2526 3.09375,1.66406 1.13541,0.41146 2.22395,0.61719 3.26563,0.61719 1.29165,0 2.30207,-0.20834 3.03125,-0.625 0.72915,-0.41667 1.09374,-1.07292 1.09375,-1.96875 -10e-6,-0.6875 -0.19793,-1.20833 -0.59375,-1.5625 -0.39585,-0.35416 -1.15626,-0.65625 -2.28125,-0.90625 -0.41668,-0.0937 -0.96095,-0.20312 -1.63281,-0.32813 -0.67189,-0.12499 -1.28387,-0.26041 -1.83594,-0.40625 -1.53126,-0.40624 -2.61719,-1.00259 -3.25781,-1.78906 -0.64063,-0.78645 -0.96094,-1.75259 -0.96094,-2.89844 0,-0.71874 0.14843,-1.39582 0.44531,-2.03125 0.29687,-0.6354 0.74739,-1.20311 1.35156,-1.70312 0.58333,-0.48957 1.32552,-0.87759 2.22657,-1.16407 0.90103,-0.28644 1.90884,-0.42967 3.02343,-0.42968 1.04166,1e-5 2.09635,0.12762 3.16407,0.38281 1.06774,0.25522 1.95574,0.56512 2.66404,0.92969 l 0,3.14062 -0.1562,0 c -0.75,-0.55207 -1.6615,-1.01821 -2.73441,-1.39844 -1.07292,-0.38019 -2.12501,-0.57029 -3.15625,-0.57031 -1.07292,2e-5 -1.97917,0.20575 -2.71875,0.61719 -0.73959,0.41147 -1.10938,1.02345 -1.10937,1.83594 -10e-6,0.71876 0.22395,1.26042 0.67187,1.625 0.4375,0.36459 1.14583,0.66146 2.125,0.89062 0.54166,0.12501 1.14843,0.25001 1.82032,0.375 0.67186,0.12501 1.23176,0.23959 1.67968,0.34375 1.36457,0.31251 2.41661,0.84897 3.15621,1.60938 0.7396,0.77084 1.1094,1.79167 1.1094,3.0625 z"
         style="font-size:32px;font-variant:normal;font-stretch:normal;font-family:Verdana;-inkscape-font-specification:Verdana"
         id="path2880" />
      <path
         d="m 1010.1107,918.84174 -3.3125,0 0,-3.04688 3.3125,0 z m -0.1875,20.375 -2.9375,0 0,-17.45313 2.9375,0 z"
         style="font-size:32px;font-variant:normal;font-stretch:normal;font-family:Verdana;-inkscape-font-specification:Verdana"
         id="path2882" />
      <path
         d="m 1031.1263,930.35736 c 0,1.45834 -0.2057,2.77084 -0.6171,3.9375 -0.4115,1.16667 -0.9662,2.14584 -1.6641,2.9375 -0.7396,0.82292 -1.5521,1.44011 -2.4375,1.85156 -0.8854,0.41146 -1.8594,0.61719 -2.9219,0.61719 -0.9896,0 -1.8542,-0.11719 -2.5937,-0.35156 -0.7396,-0.23438 -1.4688,-0.54948 -2.1875,-0.94531 l -0.1875,0.8125 -2.75,0 0,-24.3125 2.9375,0 0,8.6875 c 0.8229,-0.67707 1.6979,-1.23176 2.625,-1.66407 0.927,-0.43227 1.9687,-0.64842 3.125,-0.64843 2.0625,1e-5 3.6901,0.79168 4.8828,2.375 1.1927,1.58334 1.789,3.81772 1.789,6.70312 z m -3.0312,0.0781 c 0,-2.08333 -0.3438,-3.66405 -1.0313,-4.74219 -0.6875,-1.07811 -1.7968,-1.61717 -3.3281,-1.61719 -0.8542,2e-5 -1.7187,0.18491 -2.5937,0.55469 -0.875,0.3698 -1.6875,0.84637 -2.4375,1.42969 l 0,10 c 0.8333,0.375 1.5494,0.63542 2.1484,0.78125 0.599,0.14583 1.2786,0.21875 2.0391,0.21875 1.625,0 2.8984,-0.53386 3.8203,-1.60157 0.9218,-1.0677 1.3828,-2.74218 1.3828,-5.02343 z"
         style="font-size:32px;font-variant:normal;font-stretch:normal;font-family:Verdana;-inkscape-font-specification:Verdana"
         id="path2884" />
      <path
         d="m 1038.6732,939.21674 -2.9375,0 0,-24.3125 2.9375,0 z"
         style="font-size:32px;font-variant:normal;font-stretch:normal;font-family:Verdana;-inkscape-font-specification:Verdana"
         id="path2886" />
      <path
         d="m 1059.1263,930.79486 -12.8593,0 c 0,1.07292 0.1614,2.00782 0.4843,2.80469 0.323,0.79688 0.7657,1.45052 1.3282,1.96094 0.5416,0.5 1.1849,0.875 1.9297,1.125 0.7447,0.25 1.565,0.375 2.4609,0.375 1.1875,0 2.3828,-0.23698 3.5859,-0.71094 1.2031,-0.47396 2.0599,-0.9401 2.5703,-1.39844 l 0.1563,0 0,3.20313 c -0.9896,0.41666 -2,0.76562 -3.0313,1.04687 -1.0312,0.28125 -2.1146,0.42188 -3.25,0.42188 -2.8958,0 -5.1562,-0.78386 -6.7812,-2.35157 -1.625,-1.5677 -2.4375,-3.79426 -2.4375,-6.67968 0,-2.85416 0.7786,-5.11978 2.3359,-6.79688 1.5573,-1.67707 3.6068,-2.51561 6.1485,-2.51562 2.3541,1e-5 4.1692,0.68751 5.4453,2.0625 1.276,1.37501 1.914,3.32813 1.914,5.85937 z m -2.8593,-2.25 c -0.011,-1.54165 -0.3985,-2.73436 -1.1641,-3.57812 -0.7656,-0.84374 -1.9297,-1.26561 -3.4922,-1.26563 -1.5729,2e-5 -2.8255,0.46356 -3.7578,1.39063 -0.9323,0.92709 -1.4609,2.07813 -1.5859,3.45312 z"
         style="font-size:32px;font-variant:normal;font-stretch:normal;font-family:Verdana;-inkscape-font-specification:Verdana"
         id="path2888" />
      <path
         d="m 429.89197,979.21674 -15.32813,0 0,-23.26563 15.32813,0 0,2.75 -12.23438,0 0,6.375 12.23438,0 0,2.75 -12.23438,0 0,8.64063 12.23438,0 z"
         style="font-size:32px;font-variant:normal;font-stretch:normal;font-family:Verdana;-inkscape-font-specification:Verdana"
         id="path2890" />
      <path
         d="m 449.17322,979.21674 -2.9375,0 0,-9.9375 c -2e-5,-0.80208 -0.0469,-1.55468 -0.14063,-2.25782 -0.0938,-0.70311 -0.26564,-1.25259 -0.51562,-1.64843 -0.26043,-0.43749 -0.63543,-0.76301 -1.125,-0.97657 -0.4896,-0.21352 -1.12501,-0.32029 -1.90625,-0.32031 -0.8021,2e-5 -1.64064,0.19793 -2.51563,0.59375 -0.875,0.39585 -1.71355,0.90106 -2.51562,1.51563 l 0,13.03125 -2.9375,0 0,-17.45313 2.9375,0 0,1.9375 c 0.91666,-0.7604 1.86457,-1.35415 2.84375,-1.78125 0.97915,-0.42706 1.98436,-0.64061 3.01562,-0.64062 1.88541,1e-5 3.3229,0.56772 4.3125,1.70312 0.98957,1.13543 1.48436,2.77085 1.48438,4.90625 z"
         style="font-size:32px;font-variant:normal;font-stretch:normal;font-family:Verdana;-inkscape-font-specification:Verdana"
         id="path2892" />
      <path
         d="m 469.92322,961.76361 -7.0625,17.45313 -2.95313,0 -7.01562,-17.45313 3.1875,0 5.40625,13.89063 5.35937,-13.89063 z"
         style="font-size:32px;font-variant:normal;font-stretch:normal;font-family:Verdana;-inkscape-font-specification:Verdana"
         id="path2894" />
      <path
         d="m 476.92322,958.84174 -3.3125,0 0,-3.04688 3.3125,0 z m -0.1875,20.375 -2.9375,0 0,-17.45313 2.9375,0 z"
         style="font-size:32px;font-variant:normal;font-stretch:normal;font-family:Verdana;-inkscape-font-specification:Verdana"
         id="path2896" />
      <path
         d="m 493.47009,964.96674 -0.15625,0 c -0.43751,-0.10416 -0.86199,-0.17968 -1.27343,-0.22657 -0.41147,-0.0469 -0.89845,-0.0703 -1.46094,-0.0703 -0.90626,2e-5 -1.78126,0.20054 -2.625,0.60156 -0.84376,0.40106 -1.65626,0.91929 -2.4375,1.55469 l 0,12.39063 -2.9375,0 0,-17.45313 2.9375,0 0,2.57813 c 1.16666,-0.93749 2.1953,-1.60155 3.08594,-1.99219 0.89061,-0.39061 1.79946,-0.58592 2.72656,-0.58594 0.5104,2e-5 0.88019,0.013 1.10937,0.0391 0.22916,0.0261 0.57291,0.0755 1.03125,0.14844 z"
         style="font-size:32px;font-variant:normal;font-stretch:normal;font-family:Verdana;-inkscape-font-specification:Verdana"
         id="path2898" />
      <path
         d="m 511.14197,970.49799 c -2e-5,2.84375 -0.72919,5.08854 -2.1875,6.73437 -1.45835,1.64583 -3.41147,2.46875 -5.85938,2.46875 -2.46875,0 -4.42969,-0.82292 -5.88281,-2.46875 -1.45313,-1.64583 -2.17969,-3.89062 -2.17969,-6.73437 0,-2.84374 0.72656,-5.09114 2.17969,-6.74219 1.45312,-1.65103 3.41406,-2.47655 5.88281,-2.47656 2.44791,1e-5 4.40103,0.82553 5.85938,2.47656 1.45831,1.65105 2.18748,3.89845 2.1875,6.74219 z m -3.03125,0 c -2e-5,-2.26041 -0.44272,-3.9401 -1.32813,-5.03907 -0.88543,-1.09894 -2.11459,-1.64842 -3.6875,-1.64843 -1.59376,1e-5 -2.83073,0.54949 -3.71093,1.64843 -0.88022,1.09897 -1.32032,2.77866 -1.32032,5.03907 0,2.1875 0.44271,3.84635 1.32813,4.97656 0.88541,1.13021 2.11978,1.69531 3.70312,1.69531 1.56249,0 2.78905,-0.55989 3.67969,-1.67969 0.89061,-1.11978 1.33592,-2.78384 1.33594,-4.99218 z"
         style="font-size:32px;font-variant:normal;font-stretch:normal;font-family:Verdana;-inkscape-font-specification:Verdana"
         id="path2900" />
      <path
         d="m 530.29822,979.21674 -2.9375,0 0,-9.9375 c -2e-5,-0.80208 -0.0469,-1.55468 -0.14063,-2.25782 -0.0938,-0.70311 -0.26564,-1.25259 -0.51562,-1.64843 -0.26043,-0.43749 -0.63543,-0.76301 -1.125,-0.97657 -0.4896,-0.21352 -1.12501,-0.32029 -1.90625,-0.32031 -0.8021,2e-5 -1.64064,0.19793 -2.51563,0.59375 -0.875,0.39585 -1.71355,0.90106 -2.51562,1.51563 l 0,13.03125 -2.9375,0 0,-17.45313 2.9375,0 0,1.9375 c 0.91666,-0.7604 1.86457,-1.35415 2.84375,-1.78125 0.97915,-0.42706 1.98436,-0.64061 3.01562,-0.64062 1.88541,1e-5 3.3229,0.56772 4.3125,1.70312 0.98957,1.13543 1.48436,2.77085 1.48438,4.90625 z"
         style="font-size:32px;font-variant:normal;font-stretch:normal;font-family:Verdana;-inkscape-font-specification:Verdana"
         id="path2902" />
      <path
         d="m 561.42322,979.21674 -2.9375,0 0,-9.9375 c -3e-5,-0.74999 -0.0339,-1.47395 -0.10156,-2.17188 -0.0677,-0.6979 -0.21097,-1.25519 -0.42969,-1.67187 -0.23961,-0.44791 -0.58336,-0.78645 -1.03125,-1.01563 -0.44794,-0.22915 -1.09377,-0.34373 -1.9375,-0.34375 -0.82294,2e-5 -1.64586,0.20574 -2.46875,0.61719 -0.82294,0.41147 -1.64585,0.93491 -2.46875,1.57031 0.0312,0.2396 0.0573,0.51824 0.0781,0.83594 0.0208,0.31772 0.0312,0.63282 0.0312,0.94531 l 0,11.17188 -2.9375,0 0,-9.9375 c -10e-6,-0.77083 -0.0339,-1.5026 -0.10156,-2.19532 -0.0677,-0.69269 -0.21095,-1.24738 -0.42969,-1.66406 -0.23959,-0.4479 -0.58334,-0.78384 -1.03125,-1.00781 -0.44793,-0.22394 -1.09376,-0.33592 -1.9375,-0.33594 -0.80209,2e-5 -1.60678,0.19793 -2.41406,0.59375 -0.8073,0.39585 -1.61199,0.90106 -2.41406,1.51563 l 0,13.03125 -2.9375,0 0,-17.45313 2.9375,0 0,1.9375 c 0.91666,-0.7604 1.83072,-1.35415 2.74219,-1.78125 0.91144,-0.42706 1.8828,-0.64061 2.91406,-0.64062 1.18749,1e-5 2.1953,0.25001 3.02344,0.75 0.8281,0.50001 1.44529,1.19272 1.85156,2.07812 1.18748,-0.99998 2.27081,-1.72134 3.25,-2.16406 0.97914,-0.44269 2.02602,-0.66405 3.14062,-0.66406 1.91664,1e-5 3.33071,0.58074 4.24219,1.74218 0.91143,1.16148 1.36716,2.78387 1.36719,4.86719 z"
         style="font-size:32px;font-variant:normal;font-stretch:normal;font-family:Verdana;-inkscape-font-specification:Verdana"
         id="path2904" />
      <path
         d="m 581.68884,970.79486 -12.85937,0 c -10e-6,1.07292 0.16145,2.00782 0.48437,2.80469 0.32291,0.79688 0.76562,1.45052 1.32813,1.96094 0.54166,0.5 1.18489,0.875 1.92969,1.125 0.74478,0.25 1.56509,0.375 2.46093,0.375 1.18749,0 2.3828,-0.23698 3.58594,-0.71094 1.20311,-0.47396 2.05988,-0.9401 2.57031,-1.39844 l 0.15625,0 0,3.20313 c -0.9896,0.41666 -2.00001,0.76562 -3.03125,1.04687 -1.03126,0.28125 -2.11459,0.42188 -3.25,0.42188 -2.89584,0 -5.15625,-0.78386 -6.78125,-2.35157 -1.625,-1.5677 -2.4375,-3.79426 -2.4375,-6.67968 0,-2.85416 0.77865,-5.11978 2.33594,-6.79688 1.55729,-1.67707 3.60676,-2.51561 6.14844,-2.51562 2.35415,1e-5 4.16925,0.68751 5.44531,2.0625 1.27603,1.37501 1.91405,3.32813 1.91406,5.85937 z m -2.85937,-2.25 c -0.0104,-1.54165 -0.39845,-2.73436 -1.16406,-3.57812 -0.76564,-0.84374 -1.9297,-1.26561 -3.49219,-1.26563 -1.57293,2e-5 -2.82553,0.46356 -3.75781,1.39063 -0.9323,0.92709 -1.46095,2.07813 -1.58594,3.45312 z"
         style="font-size:32px;font-variant:normal;font-stretch:normal;font-family:Verdana;-inkscape-font-specification:Verdana"
         id="path2906" />
      <path
         d="m 600.73572,979.21674 -2.9375,0 0,-9.9375 c -2e-5,-0.80208 -0.0469,-1.55468 -0.14063,-2.25782 -0.0938,-0.70311 -0.26564,-1.25259 -0.51562,-1.64843 -0.26043,-0.43749 -0.63543,-0.76301 -1.125,-0.97657 -0.4896,-0.21352 -1.12501,-0.32029 -1.90625,-0.32031 -0.8021,2e-5 -1.64064,0.19793 -2.51563,0.59375 -0.875,0.39585 -1.71355,0.90106 -2.51562,1.51563 l 0,13.03125 -2.9375,0 0,-17.45313 2.9375,0 0,1.9375 c 0.91666,-0.7604 1.86457,-1.35415 2.84375,-1.78125 0.97915,-0.42706 1.98436,-0.64061 3.01562,-0.64062 1.88541,1e-5 3.3229,0.56772 4.3125,1.70312 0.98957,1.13543 1.48436,2.77085 1.48438,4.90625 z"
         style="font-size:32px;font-variant:normal;font-stretch:normal;font-family:Verdana;-inkscape-font-specification:Verdana"
         id="path2908" />
      <path
         d="m 615.45447,979.06049 c -0.5521,0.14583 -1.15366,0.26562 -1.80469,0.35937 -0.65105,0.0937 -1.23178,0.14063 -1.74219,0.14063 -1.78125,0 -3.13542,-0.47917 -4.0625,-1.4375 -0.92708,-0.95834 -1.39063,-2.49479 -1.39062,-4.60938 l 0,-9.28125 -1.98438,0 0,-2.46875 1.98438,0 0,-5.01562 2.9375,0 0,5.01562 6.0625,0 0,2.46875 -6.0625,0 0,7.95313 c -10e-6,0.91667 0.0208,1.63281 0.0625,2.14843 0.0417,0.51563 0.18749,0.9974 0.4375,1.44532 0.22916,0.41667 0.54426,0.72135 0.94531,0.91406 0.40103,0.19271 1.01301,0.28906 1.83594,0.28906 0.47915,0 0.97915,-0.0703 1.5,-0.21094 0.52082,-0.14062 0.89582,-0.25781 1.125,-0.35156 l 0.15625,0 z"
         style="font-size:32px;font-variant:normal;font-stretch:normal;font-family:Verdana;-inkscape-font-specification:Verdana"
         id="path2910" />
      <path
         d="m 639.65759,957.74799 -0.15625,0 c -0.32293,-0.0937 -0.7448,-0.19009 -1.26562,-0.28907 -0.52085,-0.0989 -0.97918,-0.14841 -1.375,-0.14843 -1.26043,2e-5 -2.17449,0.27866 -2.74219,0.83593 -0.56771,0.55732 -0.85157,1.56513 -0.85156,3.02344 l 0,0.59375 5.29687,0 0,2.46875 -5.20312,0 0,14.98438 -2.9375,0 0,-14.98438 -1.98438,0 0,-2.46875 1.98438,0 0,-0.57812 c -10e-6,-2.0729 0.51562,-3.66404 1.54687,-4.77344 1.03125,-1.10935 2.52083,-1.66404 4.46875,-1.66406 0.65624,2e-5 1.24739,0.0313 1.77344,0.0937 0.52603,0.0625 1.0078,0.13544 1.44531,0.21875 z"
         style="font-size:32px;font-variant:normal;font-stretch:normal;font-family:Verdana;-inkscape-font-specification:Verdana"
         id="path2912" />
      <path
         d="m 656.39197,970.49799 c -2e-5,2.84375 -0.72919,5.08854 -2.1875,6.73437 -1.45835,1.64583 -3.41147,2.46875 -5.85938,2.46875 -2.46875,0 -4.42969,-0.82292 -5.88281,-2.46875 -1.45313,-1.64583 -2.17969,-3.89062 -2.17969,-6.73437 0,-2.84374 0.72656,-5.09114 2.17969,-6.74219 1.45312,-1.65103 3.41406,-2.47655 5.88281,-2.47656 2.44791,1e-5 4.40103,0.82553 5.85938,2.47656 1.45831,1.65105 2.18748,3.89845 2.1875,6.74219 z m -3.03125,0 c -2e-5,-2.26041 -0.44272,-3.9401 -1.32813,-5.03907 -0.88543,-1.09894 -2.11459,-1.64842 -3.6875,-1.64843 -1.59376,1e-5 -2.83073,0.54949 -3.71093,1.64843 -0.88022,1.09897 -1.32032,2.77866 -1.32032,5.03907 0,2.1875 0.44271,3.84635 1.32813,4.97656 0.88541,1.13021 2.11978,1.69531 3.70312,1.69531 1.56249,0 2.78905,-0.55989 3.67969,-1.67969 0.89061,-1.11978 1.33592,-2.78384 1.33594,-4.99218 z"
         style="font-size:32px;font-variant:normal;font-stretch:normal;font-family:Verdana;-inkscape-font-specification:Verdana"
         id="path2914" />
      <path
         d="m 671.84509,964.96674 -0.15625,0 c -0.43751,-0.10416 -0.86199,-0.17968 -1.27343,-0.22657 -0.41148,-0.0469 -0.89845,-0.0703 -1.46094,-0.0703 -0.90626,2e-5 -1.78126,0.20054 -2.625,0.60156 -0.84376,0.40106 -1.65626,0.91929 -2.4375,1.55469 l 0,12.39063 -2.9375,0 0,-17.45313 2.9375,0 0,2.57813 c 1.16666,-0.93749 2.1953,-1.60155 3.08594,-1.99219 0.89061,-0.39061 1.79946,-0.58592 2.72656,-0.58594 0.5104,2e-5 0.88019,0.013 1.10937,0.0391 0.22916,0.0261 0.57291,0.0755 1.03125,0.14844 z"
         style="font-size:32px;font-variant:normal;font-stretch:normal;font-family:Verdana;-inkscape-font-specification:Verdana"
         id="path2916" />
      <path
         d="m 703.92322,979.21674 -3.09375,0 0,-11.39063 -11.60938,0 0,11.39063 -3.09375,0 0,-23.26563 3.09375,0 0,9.125 11.60938,0 0,-9.125 3.09375,0 z"
         style="font-size:32px;font-variant:normal;font-stretch:normal;font-family:Verdana;-inkscape-font-specification:Verdana"
         id="path2918" />
      <path
         d="m 724.56384,970.79486 -12.85937,0 c -10e-6,1.07292 0.16145,2.00782 0.48437,2.80469 0.32291,0.79688 0.76562,1.45052 1.32813,1.96094 0.54166,0.5 1.18489,0.875 1.92969,1.125 0.74478,0.25 1.56509,0.375 2.46093,0.375 1.18749,0 2.3828,-0.23698 3.58594,-0.71094 1.20311,-0.47396 2.05988,-0.9401 2.57031,-1.39844 l 0.15625,0 0,3.20313 c -0.9896,0.41666 -2.00001,0.76562 -3.03125,1.04687 -1.03126,0.28125 -2.11459,0.42188 -3.25,0.42188 -2.89584,0 -5.15625,-0.78386 -6.78125,-2.35157 -1.625,-1.5677 -2.4375,-3.79426 -2.4375,-6.67968 0,-2.85416 0.77865,-5.11978 2.33594,-6.79688 1.55729,-1.67707 3.60676,-2.51561 6.14844,-2.51562 2.35415,1e-5 4.16925,0.68751 5.44531,2.0625 1.27603,1.37501 1.91405,3.32813 1.91406,5.85937 z m -2.85937,-2.25 c -0.0104,-1.54165 -0.39845,-2.73436 -1.16406,-3.57812 -0.76564,-0.84374 -1.9297,-1.26561 -3.49219,-1.26563 -1.57293,2e-5 -2.82553,0.46356 -3.75781,1.39063 -0.9323,0.92709 -1.46095,2.07813 -1.58594,3.45312 z"
         style="font-size:32px;font-variant:normal;font-stretch:normal;font-family:Verdana;-inkscape-font-specification:Verdana"
         id="path2920" />
      <path
         d="m 743.48572,979.21674 -2.9375,0 0,-1.9375 c -0.9896,0.78125 -1.93751,1.3802 -2.84375,1.79687 -0.90626,0.41667 -1.90626,0.625 -3,0.625 -1.83334,0 -3.26042,-0.55989 -4.28125,-1.67969 -1.02084,-1.11979 -1.53125,-2.76301 -1.53125,-4.92968 l 0,-11.32813 2.9375,0 0,9.9375 c -10e-6,0.88542 0.0417,1.64324 0.125,2.27344 0.0833,0.63021 0.26041,1.16927 0.53125,1.61719 0.28124,0.45833 0.64582,0.79167 1.09375,1 0.44791,0.20833 1.09895,0.3125 1.95312,0.3125 0.76041,0 1.59114,-0.19792 2.49219,-0.59375 0.90103,-0.39583 1.74217,-0.90104 2.52344,-1.51563 l 0,-13.03125 2.9375,0 z"
         style="font-size:32px;font-variant:normal;font-stretch:normal;font-family:Verdana;-inkscape-font-specification:Verdana"
         id="path2922" />
      <path
         d="m 760.15759,964.96674 -0.15625,0 c -0.43751,-0.10416 -0.86199,-0.17968 -1.27343,-0.22657 -0.41148,-0.0469 -0.89845,-0.0703 -1.46094,-0.0703 -0.90626,2e-5 -1.78126,0.20054 -2.625,0.60156 -0.84376,0.40106 -1.65626,0.91929 -2.4375,1.55469 l 0,12.39063 -2.9375,0 0,-17.45313 2.9375,0 0,2.57813 c 1.16666,-0.93749 2.1953,-1.60155 3.08594,-1.99219 0.89061,-0.39061 1.79946,-0.58592 2.72656,-0.58594 0.5104,2e-5 0.88019,0.013 1.10937,0.0391 0.22916,0.0261 0.57291,0.0755 1.03125,0.14844 z"
         style="font-size:32px;font-variant:normal;font-stretch:normal;font-family:Verdana;-inkscape-font-specification:Verdana"
         id="path2924" />
      <path
         d="m 766.11072,958.84174 -3.3125,0 0,-3.04688 3.3125,0 z m -0.1875,20.375 -2.9375,0 0,-17.45313 2.9375,0 z"
         style="font-size:32px;font-variant:normal;font-stretch:normal;font-family:Verdana;-inkscape-font-specification:Verdana"
         id="path2926" />
      <path
         d="m 784.23572,974.18549 c -2e-5,1.59375 -0.65887,2.90104 -1.97656,3.92187 -1.31773,1.02083 -3.1172,1.53125 -5.39844,1.53125 -1.29168,0 -2.47657,-0.15365 -3.55469,-0.46094 -1.07813,-0.30729 -1.98177,-0.64323 -2.71094,-1.00781 l 0,-3.29687 0.15625,0 c 0.92708,0.69792 1.95833,1.2526 3.09375,1.66406 1.13541,0.41146 2.22395,0.61719 3.26563,0.61719 1.29165,0 2.30207,-0.20834 3.03125,-0.625 0.72915,-0.41667 1.09374,-1.07292 1.09375,-1.96875 -10e-6,-0.6875 -0.19793,-1.20833 -0.59375,-1.5625 -0.39585,-0.35416 -1.15626,-0.65625 -2.28125,-0.90625 -0.41668,-0.0937 -0.96095,-0.20312 -1.63281,-0.32813 -0.67189,-0.12499 -1.28387,-0.26041 -1.83594,-0.40625 -1.53126,-0.40624 -2.61719,-1.00259 -3.25781,-1.78906 -0.64063,-0.78645 -0.96094,-1.75259 -0.96094,-2.89844 0,-0.71874 0.14843,-1.39582 0.44531,-2.03125 0.29687,-0.6354 0.74739,-1.20311 1.35156,-1.70312 0.58333,-0.48957 1.32552,-0.87759 2.22657,-1.16407 0.90103,-0.28644 1.90884,-0.42967 3.02343,-0.42968 1.04166,1e-5 2.09635,0.12762 3.16407,0.38281 1.06769,0.25522 1.95571,0.56512 2.66406,0.92969 l 0,3.14062 -0.15625,0 c -0.75002,-0.55207 -1.66147,-1.01821 -2.73438,-1.39844 -1.07292,-0.38019 -2.12501,-0.57029 -3.15625,-0.57031 -1.07292,2e-5 -1.97917,0.20575 -2.71875,0.61719 -0.73959,0.41147 -1.10938,1.02345 -1.10937,1.83594 -10e-6,0.71876 0.22395,1.26042 0.67187,1.625 0.4375,0.36459 1.14583,0.66146 2.125,0.89062 0.54166,0.12501 1.14843,0.25001 1.82032,0.375 0.67186,0.12501 1.23176,0.23959 1.67968,0.34375 1.36457,0.31251 2.41666,0.84897 3.15625,1.60938 0.73957,0.77084 1.10936,1.79167 1.10938,3.0625 z"
         style="font-size:32px;font-variant:normal;font-stretch:normal;font-family:Verdana;-inkscape-font-specification:Verdana"
         id="path2928" />
      <path
         d="m 797.51697,979.06049 c -0.5521,0.14583 -1.15366,0.26562 -1.80469,0.35937 -0.65105,0.0937 -1.23178,0.14063 -1.74219,0.14063 -1.78125,0 -3.13542,-0.47917 -4.0625,-1.4375 -0.92708,-0.95834 -1.39063,-2.49479 -1.39062,-4.60938 l 0,-9.28125 -1.98438,0 0,-2.46875 1.98438,0 0,-5.01562 2.9375,0 0,5.01562 6.0625,0 0,2.46875 -6.0625,0 0,7.95313 c -10e-6,0.91667 0.0208,1.63281 0.0625,2.14843 0.0417,0.51563 0.18749,0.9974 0.4375,1.44532 0.22916,0.41667 0.54426,0.72135 0.94531,0.91406 0.40103,0.19271 1.01301,0.28906 1.83594,0.28906 0.47915,0 0.97915,-0.0703 1.5,-0.21094 0.52082,-0.14062 0.89582,-0.25781 1.125,-0.35156 l 0.15625,0 z"
         style="font-size:32px;font-variant:normal;font-stretch:normal;font-family:Verdana;-inkscape-font-specification:Verdana"
         id="path2930" />
      <path
         d="m 804.23572,958.84174 -3.3125,0 0,-3.04688 3.3125,0 z m -0.1875,20.375 -2.9375,0 0,-17.45313 2.9375,0 z"
         style="font-size:32px;font-variant:normal;font-stretch:normal;font-family:Verdana;-inkscape-font-specification:Verdana"
         id="path2932" />
      <path
         d="m 822.79822,978.12299 c -0.97918,0.46875 -1.90887,0.83333 -2.78906,1.09375 -0.88023,0.26041 -1.81512,0.39062 -2.80469,0.39062 -1.26043,0 -2.41668,-0.1849 -3.46875,-0.55469 -1.05209,-0.36979 -1.95313,-0.92968 -2.70313,-1.67968 -0.76042,-0.75 -1.34896,-1.69792 -1.76562,-2.84375 -0.41667,-1.14583 -0.625,-2.48437 -0.625,-4.01563 0,-2.85415 0.78385,-5.09374 2.35156,-6.71875 1.5677,-1.62498 3.63801,-2.43748 6.21094,-2.4375 0.99999,2e-5 1.98176,0.14064 2.94531,0.42188 0.96353,0.28126 1.84634,0.62501 2.64844,1.03125 l 0,3.26562 -0.15625,0 c -0.89585,-0.6979 -1.82033,-1.23436 -2.77344,-1.60937 -0.95314,-0.37499 -1.88282,-0.56249 -2.78906,-0.5625 -1.66668,1e-5 -2.98178,0.55991 -3.94531,1.67968 -0.96355,1.11981 -1.44532,2.76304 -1.44532,4.92969 0,2.10417 0.47135,3.72136 1.41407,4.85156 0.9427,1.13021 2.26822,1.69532 3.97656,1.69532 0.59374,0 1.1979,-0.0781 1.8125,-0.23438 0.61457,-0.15625 1.16665,-0.35937 1.65625,-0.60937 0.42707,-0.21875 0.82811,-0.45052 1.20312,-0.69532 0.37499,-0.24478 0.67186,-0.45572 0.89063,-0.63281 l 0.15625,0 z"
         style="font-size:32px;font-variant:normal;font-stretch:normal;font-family:Verdana;-inkscape-font-specification:Verdana"
         id="path2934" />
      <path
         d="m 855.40759,958.62299 c 0.9479,1.04168 1.67446,2.31772 2.17969,3.82812 0.50519,1.51043 0.75779,3.22397 0.75781,5.14063 -2e-5,1.91667 -0.25783,3.63282 -0.77343,5.14843 -0.51565,1.51563 -1.23701,2.77865 -2.16407,3.78907 -0.95835,1.05208 -2.09116,1.84375 -3.39843,2.375 -1.30731,0.53125 -2.7995,0.79687 -4.47657,0.79687 -1.63542,0 -3.1224,-0.27083 -4.46093,-0.8125 -1.33855,-0.54166 -2.47657,-1.32812 -3.41407,-2.35937 -0.9375,-1.03125 -1.65885,-2.29687 -2.16406,-3.79688 -0.50521,-1.49999 -0.75781,-3.21353 -0.75781,-5.14062 0,-1.89582 0.25,-3.59634 0.75,-5.10157 0.49999,-1.50519 1.22916,-2.79425 2.1875,-3.86718 0.91666,-1.02082 2.05468,-1.80207 3.41406,-2.34375 1.35937,-0.54165 2.84114,-0.81248 4.44531,-0.8125 1.66666,2e-5 3.16405,0.27346 4.49219,0.82031 1.32811,0.5469 2.45571,1.32554 3.38281,2.33594 z m -0.28125,8.96875 c -2e-5,-3.02082 -0.6771,-5.35155 -2.03125,-6.99219 -1.35418,-1.64061 -3.20314,-2.46092 -5.54687,-2.46094 -2.3646,2e-5 -4.22136,0.82033 -5.57031,2.46094 -1.34897,1.64064 -2.02345,3.97137 -2.02344,6.99219 -10e-6,3.05209 0.68749,5.38802 2.0625,7.00781 1.37499,1.61979 3.21874,2.42969 5.53125,2.42969 2.31248,0 4.15363,-0.8099 5.52344,-2.42969 1.36977,-1.61979 2.05466,-3.95572 2.05468,-7.00781 z"
         style="font-size:32px;font-variant:normal;font-stretch:normal;font-family:Verdana;-inkscape-font-specification:Verdana"
         id="path2936" />
      <path
         d="m 878.37634,970.27924 c -2e-5,1.41667 -0.20314,2.71094 -0.60937,3.88281 -0.40627,1.17188 -0.97919,2.16406 -1.71875,2.97656 -0.68752,0.77084 -1.49741,1.36719 -2.42969,1.78906 -0.9323,0.42188 -1.91928,0.63282 -2.96094,0.63282 -0.90626,0 -1.72657,-0.099 -2.46093,-0.29688 -0.73439,-0.19792 -1.48178,-0.50521 -2.24219,-0.92187 l 0,7.3125 -2.9375,0 0,-23.89063 2.9375,0 0,1.82813 c 0.78124,-0.65624 1.65884,-1.20572 2.63281,-1.64844 0.97395,-0.44269 2.01301,-0.66405 3.11719,-0.66406 2.10415,1e-5 3.74217,0.79428 4.91406,2.38281 1.17186,1.58855 1.75779,3.79428 1.75781,6.61719 z m -3.03125,0.0781 c -10e-6,-2.10415 -0.35939,-3.67707 -1.07812,-4.71875 -0.71877,-1.04165 -1.82293,-1.56248 -3.3125,-1.5625 -0.84376,2e-5 -1.69272,0.18231 -2.54688,0.54688 -0.85417,0.36459 -1.67188,0.84376 -2.45312,1.4375 l 0,9.89062 c 0.83332,0.375 1.54947,0.63021 2.14844,0.76563 0.59895,0.13541 1.27863,0.20312 2.03906,0.20312 1.6354,0 2.91144,-0.55208 3.82812,-1.65625 0.91665,-1.10416 1.37499,-2.73958 1.375,-4.90625 z"
         style="font-size:32px;font-variant:normal;font-stretch:normal;font-family:Verdana;-inkscape-font-specification:Verdana"
         id="path2938" />
      <path
         d="m 892.01697,979.06049 c -0.5521,0.14583 -1.15366,0.26562 -1.80469,0.35937 -0.65105,0.0937 -1.23178,0.14063 -1.74219,0.14063 -1.78125,0 -3.13542,-0.47917 -4.0625,-1.4375 -0.92708,-0.95834 -1.39063,-2.49479 -1.39062,-4.60938 l 0,-9.28125 -1.98438,0 0,-2.46875 1.98438,0 0,-5.01562 2.9375,0 0,5.01562 6.0625,0 0,2.46875 -6.0625,0 0,7.95313 c -10e-6,0.91667 0.0208,1.63281 0.0625,2.14843 0.0417,0.51563 0.18749,0.9974 0.4375,1.44532 0.22916,0.41667 0.54426,0.72135 0.94531,0.91406 0.40103,0.19271 1.01301,0.28906 1.83594,0.28906 0.47915,0 0.97915,-0.0703 1.5,-0.21094 0.52082,-0.14062 0.89582,-0.25781 1.125,-0.35156 l 0.15625,0 z"
         style="font-size:32px;font-variant:normal;font-stretch:normal;font-family:Verdana;-inkscape-font-specification:Verdana"
         id="path2940" />
      <path
         d="m 898.73572,958.84174 -3.3125,0 0,-3.04688 3.3125,0 z m -0.1875,20.375 -2.9375,0 0,-17.45313 2.9375,0 z"
         style="font-size:32px;font-variant:normal;font-stretch:normal;font-family:Verdana;-inkscape-font-specification:Verdana"
         id="path2942" />
      <path
         d="m 929.86072,979.21674 -2.9375,0 0,-9.9375 c -3e-5,-0.74999 -0.0339,-1.47395 -0.10156,-2.17188 -0.0677,-0.6979 -0.21097,-1.25519 -0.42969,-1.67187 -0.23961,-0.44791 -0.58336,-0.78645 -1.03125,-1.01563 -0.44794,-0.22915 -1.09377,-0.34373 -1.9375,-0.34375 -0.82294,2e-5 -1.64586,0.20574 -2.46875,0.61719 -0.82294,0.41147 -1.64585,0.93491 -2.46875,1.57031 0.0312,0.2396 0.0573,0.51824 0.0781,0.83594 0.0208,0.31772 0.0312,0.63282 0.0312,0.94531 l 0,11.17188 -2.9375,0 0,-9.9375 c -10e-6,-0.77083 -0.0339,-1.5026 -0.10156,-2.19532 -0.0677,-0.69269 -0.21095,-1.24738 -0.42969,-1.66406 -0.23959,-0.4479 -0.58334,-0.78384 -1.03125,-1.00781 -0.44793,-0.22394 -1.09376,-0.33592 -1.9375,-0.33594 -0.80209,2e-5 -1.60678,0.19793 -2.41406,0.59375 -0.8073,0.39585 -1.61199,0.90106 -2.41406,1.51563 l 0,13.03125 -2.9375,0 0,-17.45313 2.9375,0 0,1.9375 c 0.91666,-0.7604 1.83072,-1.35415 2.74219,-1.78125 0.91144,-0.42706 1.8828,-0.64061 2.91406,-0.64062 1.18749,1e-5 2.1953,0.25001 3.02344,0.75 0.8281,0.50001 1.44529,1.19272 1.85156,2.07812 1.18748,-0.99998 2.27081,-1.72134 3.25,-2.16406 0.97914,-0.44269 2.02602,-0.66405 3.14062,-0.66406 1.91664,1e-5 3.33071,0.58074 4.24219,1.74218 0.91143,1.16148 1.36716,2.78387 1.36719,4.86719 z"
         style="font-size:32px;font-variant:normal;font-stretch:normal;font-family:Verdana;-inkscape-font-specification:Verdana"
         id="path2944" />
      <path
         d="m 938.67322,958.84174 -3.3125,0 0,-3.04688 3.3125,0 z m -0.1875,20.375 -2.9375,0 0,-17.45313 2.9375,0 z"
         style="font-size:32px;font-variant:normal;font-stretch:normal;font-family:Verdana;-inkscape-font-specification:Verdana"
         id="path2946" />
      <path
         d="m 956.98572,979.21674 -14.09375,0 0,-2.17188 10.17187,-12.82812 -9.95312,0 0,-2.45313 13.60937,0 0,2.09375 -10.21875,12.875 10.48438,0 z"
         style="font-size:32px;font-variant:normal;font-stretch:normal;font-family:Verdana;-inkscape-font-specification:Verdana"
         id="path2948" />
      <path
         d="m 974.70447,979.21674 -2.92188,0 0,-1.85938 c -0.26043,0.17709 -0.61199,0.42448 -1.05468,0.74219 -0.44273,0.31771 -0.87241,0.57031 -1.28907,0.75781 -0.48959,0.23958 -1.05209,0.4401 -1.6875,0.60156 -0.63542,0.16146 -1.38021,0.24219 -2.23437,0.24219 -1.57292,0 -2.90626,-0.52083 -4,-1.5625 -1.09375,-1.04166 -1.64063,-2.36979 -1.64063,-3.98437 0,-1.32291 0.28386,-2.39323 0.85157,-3.21094 0.5677,-0.8177 1.3776,-1.46093 2.42968,-1.92969 1.0625,-0.46874 2.33854,-0.78645 3.82813,-0.95312 1.48957,-0.16666 3.08853,-0.29166 4.79687,-0.375 l 0,-0.45313 c -10e-6,-0.66665 -0.1172,-1.21874 -0.35156,-1.65625 -0.23439,-0.43749 -0.57032,-0.78123 -1.00781,-1.03125 -0.41668,-0.23957 -0.91668,-0.40103 -1.5,-0.48437 -0.58335,-0.0833 -1.19272,-0.12499 -1.82813,-0.125 -0.77084,1e-5 -1.63021,0.10157 -2.57812,0.30468 -0.94792,0.20314 -1.92709,0.49741 -2.9375,0.88282 l -0.15625,0 0,-2.98438 c 0.57291,-0.15623 1.40103,-0.32811 2.48437,-0.51562 1.08333,-0.18749 2.15104,-0.28124 3.20313,-0.28125 1.22915,1e-5 2.29947,0.10158 3.21094,0.30468 0.91144,0.20315 1.7005,0.5495 2.36718,1.03907 0.65624,0.47918 1.15624,1.09897 1.5,1.85937 0.34374,0.76043 0.51561,1.70314 0.51563,2.82813 z m -2.92188,-4.29688 0,-4.85937 c -0.89584,0.0521 -1.95053,0.13021 -3.16406,0.23437 -1.21355,0.10418 -2.17449,0.25522 -2.88281,0.45313 -0.84376,0.23959 -1.52605,0.61198 -2.04688,1.11718 -0.52084,0.50522 -0.78125,1.20053 -0.78125,2.08594 0,1.00001 0.30208,1.75261 0.90625,2.25781 0.60416,0.50521 1.52604,0.75782 2.76563,0.75782 1.03124,0 1.97395,-0.20052 2.82812,-0.60157 0.85416,-0.40104 1.64582,-0.88281 2.375,-1.44531 z"
         style="font-size:32px;font-variant:normal;font-stretch:normal;font-family:Verdana;-inkscape-font-specification:Verdana"
         id="path2950" />
      <path
         d="m 989.45447,979.06049 c -0.5521,0.14583 -1.15366,0.26562 -1.80469,0.35937 -0.65105,0.0937 -1.23178,0.14063 -1.74219,0.14063 -1.78125,0 -3.13542,-0.47917 -4.0625,-1.4375 -0.92708,-0.95834 -1.39063,-2.49479 -1.39062,-4.60938 l 0,-9.28125 -1.98438,0 0,-2.46875 1.98438,0 0,-5.01562 2.9375,0 0,5.01562 6.0625,0 0,2.46875 -6.0625,0 0,7.95313 c -10e-6,0.91667 0.0208,1.63281 0.0625,2.14843 0.0417,0.51563 0.18749,0.9974 0.4375,1.44532 0.22916,0.41667 0.54426,0.72135 0.94531,0.91406 0.40103,0.19271 1.01301,0.28906 1.83594,0.28906 0.47915,0 0.97915,-0.0703 1.5,-0.21094 0.52082,-0.14062 0.89582,-0.25781 1.125,-0.35156 l 0.15625,0 z"
         style="font-size:32px;font-variant:normal;font-stretch:normal;font-family:Verdana;-inkscape-font-specification:Verdana"
         id="path2952" />
      <path
         d="m 996.17322,958.84174 -3.3125,0 0,-3.04688 3.3125,0 z m -0.1875,20.375 -2.9375,0 0,-17.45313 2.9375,0 z"
         style="font-size:32px;font-variant:normal;font-stretch:normal;font-family:Verdana;-inkscape-font-specification:Verdana"
         id="path2954" />
      <path
         d="m 1016.7045,970.49799 c 0,2.84375 -0.7292,5.08854 -2.1875,6.73437 -1.4584,1.64583 -3.4115,2.46875 -5.8594,2.46875 -2.4688,0 -4.4297,-0.82292 -5.8828,-2.46875 -1.4531,-1.64583 -2.1797,-3.89062 -2.1797,-6.73437 0,-2.84374 0.7266,-5.09114 2.1797,-6.74219 1.4531,-1.65103 3.414,-2.47655 5.8828,-2.47656 2.4479,1e-5 4.401,0.82553 5.8594,2.47656 1.4583,1.65105 2.1875,3.89845 2.1875,6.74219 z m -3.0313,0 c 0,-2.26041 -0.4427,-3.9401 -1.3281,-5.03907 -0.8854,-1.09894 -2.1146,-1.64842 -3.6875,-1.64843 -1.5938,1e-5 -2.8307,0.54949 -3.7109,1.64843 -0.8803,1.09897 -1.3204,2.77866 -1.3204,5.03907 0,2.1875 0.4427,3.84635 1.3282,4.97656 0.8854,1.13021 2.1198,1.69531 3.7031,1.69531 1.5625,0 2.789,-0.55989 3.6797,-1.67969 0.8906,-1.11978 1.3359,-2.78384 1.3359,-4.99218 z"
         style="font-size:32px;font-variant:normal;font-stretch:normal;font-family:Verdana;-inkscape-font-specification:Verdana"
         id="path2956" />
      <path
         d="m 1035.8607,979.21674 -2.9375,0 0,-9.9375 c 0,-0.80208 -0.047,-1.55468 -0.1406,-2.25782 -0.094,-0.70311 -0.2656,-1.25259 -0.5156,-1.64843 -0.2605,-0.43749 -0.6355,-0.76301 -1.125,-0.97657 -0.4896,-0.21352 -1.125,-0.32029 -1.9063,-0.32031 -0.8021,2e-5 -1.6406,0.19793 -2.5156,0.59375 -0.875,0.39585 -1.7136,0.90106 -2.5156,1.51563 l 0,13.03125 -2.9375,0 0,-17.45313 2.9375,0 0,1.9375 c 0.9166,-0.7604 1.8645,-1.35415 2.8437,-1.78125 0.9792,-0.42706 1.9844,-0.64061 3.0156,-0.64062 1.8854,1e-5 3.3229,0.56772 4.3125,1.70312 0.9896,1.13543 1.4844,2.77085 1.4844,4.90625 z"
         style="font-size:32px;font-variant:normal;font-stretch:normal;font-family:Verdana;-inkscape-font-specification:Verdana"
         id="path2958" />
    </g>
  </g>
</svg>
