<?xml version="1.0" encoding="UTF-8" standalone="no"?>
<!-- Created with Inkscape (http://www.inkscape.org/) -->

<svg
   xmlns:dc="http://purl.org/dc/elements/1.1/"
   xmlns:cc="http://creativecommons.org/ns#"
   xmlns:rdf="http://www.w3.org/1999/02/22-rdf-syntax-ns#"
   xmlns:svg="http://www.w3.org/2000/svg"
   xmlns="http://www.w3.org/2000/svg"
   xmlns:sodipodi="http://sodipodi.sourceforge.net/DTD/sodipodi-0.dtd"
   xmlns:inkscape="http://www.inkscape.org/namespaces/inkscape"
   width="400"
   height="350"
   id="svg3726"
   version="1.1"
   inkscape:version="0.47 r22583"
   sodipodi:docname="hl_logo_med.svg"
   inkscape:export-filename="C:\Documents and Settings\Monika Kofler\Desktop\hl_logo3.png"
   inkscape:export-xdpi="90"
   inkscape:export-ydpi="90">
  <defs
     id="defs3728">
    <inkscape:perspective
       sodipodi:type="inkscape:persp3d"
       inkscape:vp_x="0 : 526.18109 : 1"
       inkscape:vp_y="0 : 1000 : 0"
       inkscape:vp_z="744.09448 : 526.18109 : 1"
       inkscape:persp3d-origin="372.04724 : 350.78739 : 1"
       id="perspective3734" />
    <inkscape:perspective
       id="perspective3744"
       inkscape:persp3d-origin="0.5 : 0.33333333 : 1"
       inkscape:vp_z="1 : 0.5 : 1"
       inkscape:vp_y="0 : 1000 : 0"
       inkscape:vp_x="0 : 0.5 : 1"
       sodipodi:type="inkscape:persp3d" />
  </defs>
  <sodipodi:namedview
     id="base"
     pagecolor="#ffffff"
     bordercolor="#000000"
     borderopacity="1.0"
     inkscape:pageopacity="0"
     inkscape:pageshadow="0"
     inkscape:zoom="0.76049863"
     inkscape:cx="723.73909"
     inkscape:cy="135.26634"
     inkscape:document-units="px"
     inkscape:current-layer="layer1"
     showgrid="false"
     inkscape:window-width="1280"
     inkscape:window-height="744"
     inkscape:window-x="-4"
     inkscape:window-y="-4"
     inkscape:window-maximized="1"
     showguides="true">
    <inkscape:grid
       type="xygrid"
       id="grid3761"
       empspacing="5"
       visible="true"
       enabled="true"
       snapvisiblegridlinesonly="true" />
  </sodipodi:namedview>
  <metadata
     id="metadata3731">
    <rdf:RDF>
      <cc:Work
         rdf:about="">
        <dc:format>image/svg+xml</dc:format>
        <dc:type
           rdf:resource="http://purl.org/dc/dcmitype/StillImage" />
        <dc:title />
      </cc:Work>
    </rdf:RDF>
  </metadata>
  <g
     inkscape:label="Layer 1"
     inkscape:groupmode="layer"
     id="layer1"
     transform="translate(0,-702.36218)"
     style="display:inline">
    <path
       style="fill:#f7931d;fill-opacity:1;stroke:#f7931d;stroke-width:2;stroke-linecap:butt;stroke-linejoin:miter;stroke-miterlimit:4;stroke-opacity:1;stroke-dasharray:none"
       d="m 147.97656,956.48581 15.31105,-84.8493 -88.282864,-0.3258 -14.65952,86.0025 -29.31903,-0.3258 23.78099,-132.91294 11.72762,-67.75955 0,10e-6 28.34173,0 -14.00798,86.32826 87.957084,10e-6 11.53189,-69.15743 -12.70625,0 34.4026,-44.53527 19.87179,44.53527 -12.70491,0 -15.96259,91.96114 -16.61411,91.0389 -28.6675,0 z"
       id="path2844-7-8"
       sodipodi:nodetypes="ccccccccccccccccccc" />
    <path
       style="fill:#f7931d;fill-opacity:1;stroke:#f7931d;stroke-width:2;stroke-linecap:butt;stroke-linejoin:miter;stroke-miterlimit:4;stroke-opacity:1;stroke-dasharray:none"
       d="m 316.64083,956.48581 0,12.2292 45.03885,-27.0386 -45.03885,-28.016 0,14.8254 -54.32005,-0.1662 -17.60601,0 2.94382,-21.2429 2.60881,-16.8715 8.46994,-51.79699 4.23497,-22.15215 9.7731,-59.94114 -28.668,0 -24.69352,145.68888 -8.78717,54.4818 44.88297,0 30.94787,2e-4 30.21329,0 -2e-5,0 z"
       id="path2846-4-8"
       sodipodi:nodetypes="ccccccccccccccccccc" />
    <g
       style="font-size:100px;font-style:normal;font-variant:normal;font-weight:normal;font-stretch:normal;fill:#000000;fill-opacity:1;stroke:none;font-family:Kartika;-inkscape-font-specification:Kartika"
       id="text2816">
      <path
         d="m 63.520651,1030.5259 -5.957031,0 0,-21.2403 -23.486329,0 0,21.2403 -5.908203,0 0,-45.06838 5.908203,0 0,18.45708 23.486329,0 0,-18.45708 5.957031,0 z"
         style="font-family:Kartika;-inkscape-font-specification:Kartika"
         id="path2819" />
      <path
         d="m 86.762838,1031.3071 c -2.376318,0 -4.541029,-0.3825 -6.49414,-1.1474 -1.953135,-0.765 -3.629566,-1.8718 -5.029297,-3.3203 -1.399745,-1.4486 -2.482101,-3.2308 -3.24707,-5.3467 -0.764977,-2.1159 -1.147464,-4.541 -1.147461,-7.2754 -3e-6,-2.6693 0.374346,-5.0618 1.123046,-7.1777 0.748694,-2.1159 1.798498,-3.9063 3.149415,-5.3711 1.350903,-1.4649 2.954092,-2.57976 4.80957,-3.34477 1.855455,-0.76494 3.906235,-1.14743 6.152344,-1.14746 2.34373,3e-5 4.459613,0.38252 6.347656,1.14746 1.887995,0.76501 3.499321,1.87177 4.833984,3.32027 1.334606,1.4486 2.359995,3.2309 3.076175,5.3467 0.71611,2.1159 1.07418,4.5248 1.07422,7.2266 l 0,1.416 -24.560551,0 c 0.1302,1.9206 0.471996,3.5807 1.025391,4.9805 0.553375,1.3997 1.26952,2.5553 2.148437,3.4668 0.878894,0.9114 1.896146,1.5787 3.051758,2.0019 1.155583,0.4232 2.384423,0.6348 3.686523,0.6348 0.976544,0 1.936829,-0.1221 2.88086,-0.3662 0.943988,-0.2442 1.790341,-0.6185 2.539062,-1.1231 0.748674,-0.5045 1.359025,-1.1312 1.831055,-1.8799 0.471979,-0.7486 0.740534,-1.6113 0.805664,-2.5878 l 5.957031,0 c -0.2279,1.7252 -0.74873,3.247 -1.5625,4.5654 -0.813832,1.3183 -1.839221,2.417 -3.076172,3.2959 -1.237005,0.8789 -2.661157,1.5462 -4.272461,2.0019 -1.611349,0.4558 -3.312194,0.6836 -5.102539,0.6836 z m 8.544922,-20.2636 c -0.488307,-3.1576 -1.538111,-5.5095 -3.149414,-7.0557 -1.61135,-1.5462 -3.637715,-2.3193 -6.079101,-2.3193 -1.13934,0 -2.205419,0.1872 -3.198243,0.5615 -0.992851,0.3744 -1.888033,0.944 -2.685546,1.709 -0.797537,0.765 -1.472992,1.7415 -2.026368,2.9297 -0.553394,1.1881 -0.944019,2.5797 -1.171875,4.1748 z"
         style="font-family:Kartika;-inkscape-font-specification:Kartika"
         id="path2821" />
      <path
         d="m 128.7062,1026.3755 c -2.89716,3.2877 -6.13609,4.9316 -9.7168,4.9316 -7.38933,0 -11.08399,-4.0202 -11.08398,-12.0605 l 0,-21.38674 5.81054,0 0,21.14254 c -10e-6,2.6693 0.472,4.5818 1.41602,5.7373 0.944,1.1556 2.5065,1.7334 4.6875,1.7334 3.22264,0 6.18487,-1.7415 8.88672,-5.2246 l 0,-23.38864 5.76172,0 0,32.66604 -5.76172,0 z"
         style="font-family:Kartika;-inkscape-font-specification:Kartika"
         id="path2823" />
      <path
         d="m 160.15151,1003.1821 c -0.94403,-0.2604 -2.13218,-0.3906 -3.56445,-0.3906 -2.92971,0 -5.45249,1.5463 -7.56836,4.6387 l 0,23.0957 -5.81055,0 0,-32.66604 5.81055,0 0,4.58984 c 2.34374,-3.51559 5.17576,-5.2734 8.49609,-5.27343 0.42316,3e-5 0.84634,0.0163 1.26953,0.0488 0.42316,0.0326 0.87889,0.0977 1.36719,0.19531 z"
         style="font-family:Kartika;-inkscape-font-specification:Kartika"
         id="path2825" />
      <path
         d="m 170.11245,1030.5259 -5.81055,0 0,-32.66604 5.81055,0 z m 0,-38.81838 -5.81055,0 0,-6.25 5.81055,0 z"
         style="font-family:Kartika;-inkscape-font-specification:Kartika"
         id="path2827" />
      <path
         d="m 190.37612,1031.3071 c -8.91928,0 -13.57422,-3.5156 -13.96484,-10.5468 l 5.81054,0 c 0.0651,3.9713 2.76692,5.957 8.10547,5.957 2.44139,0 4.28058,-0.4802 5.51758,-1.4404 1.23696,-0.9603 1.85545,-2.2217 1.85547,-3.7842 -2e-5,-0.7162 -0.1221,-1.3102 -0.36621,-1.7823 -0.24417,-0.4719 -0.70803,-0.8951 -1.3916,-1.2695 -0.68362,-0.3743 -1.6439,-0.7487 -2.88086,-1.123 -1.237,-0.3744 -2.84833,-0.8057 -4.83399,-1.294 -1.95313,-0.4882 -3.62143,-0.9684 -5.00488,-1.4404 -1.38347,-0.472 -2.53093,-1.0579 -3.44238,-1.7578 -0.91147,-0.6999 -1.57878,-1.5462 -2.00196,-2.5391 -0.42318,-0.9928 -0.63476,-2.2379 -0.63476,-3.7353 0,-1.3672 0.28483,-2.6204 0.85449,-3.7598 0.56966,-1.1393 1.38346,-2.124 2.44141,-2.9541 1.05793,-0.83004 2.34374,-1.48109 3.85742,-1.95312 1.51366,-0.47197 3.19823,-0.70798 5.05371,-0.70801 8.52862,3e-5 12.8906,3.04363 13.08594,9.13083 l -5.81055,0 c -0.19533,-3.0924 -2.50653,-4.6386 -6.93359,-4.6386 -0.91148,0 -1.77411,0.09 -2.58789,0.2685 -0.81382,0.1791 -1.52996,0.4476 -2.14844,0.8057 -0.6185,0.3581 -1.10678,0.8138 -1.46485,1.3672 -0.35808,0.5534 -0.53711,1.1881 -0.53711,1.9043 0,0.651 0.0651,1.18 0.19532,1.5869 0.1302,0.4069 0.48827,0.7812 1.07422,1.123 0.58592,0.3418 1.47297,0.6836 2.66113,1.0254 1.18814,0.3418 2.84015,0.7731 4.95605,1.294 1.95311,0.4883 3.66209,0.9847 5.12696,1.4892 1.46482,0.5046 2.67738,1.1231 3.63769,1.8555 0.96026,0.7324 1.68454,1.6195 2.17285,2.6611 0.48826,1.0417 0.7324,2.3438 0.73243,3.9063 -3e-5,1.4323 -0.30114,2.7832 -0.90333,4.0527 -0.60224,1.2695 -1.473,2.3682 -2.6123,3.2959 -1.13935,0.9277 -2.52281,1.6602 -4.15039,2.1973 -1.62762,0.5371 -3.45054,0.8056 -5.46875,0.8056 z"
         style="font-family:Kartika;-inkscape-font-specification:Kartika"
         id="path2829" />
      <path
         d="m 222.84682,1030.5747 c -0.65106,0.1302 -1.31837,0.2279 -2.00195,0.293 -0.68361,0.065 -1.39975,0.098 -2.14844,0.098 -1.82293,0 -3.25522,-0.2278 -4.29687,-0.6836 -1.04168,-0.4557 -1.81479,-1.1149 -2.31934,-1.9775 -0.50456,-0.8626 -0.81381,-1.9124 -0.92773,-3.1494 -0.11394,-1.237 -0.17091,-2.6367 -0.1709,-4.1992 l 0,-18.5059 -4.00391,0 0,-4.58984 4.00391,0 0,-8.05664 5.81055,0 0,8.05664 5.27343,0 0,4.58984 -5.27343,0 0,18.7988 c -2e-5,1.1394 0.0732,2.0508 0.21972,2.7344 0.14647,0.6836 0.34993,1.2044 0.61035,1.5625 0.26041,0.3581 0.59407,0.5941 1.00098,0.708 0.40689,0.114 0.85448,0.1709 1.34277,0.1709 0.52082,0 1.01724,-0.016 1.48926,-0.049 0.47199,-0.033 0.93586,-0.098 1.3916,-0.1953 z"
         style="font-family:Kartika;-inkscape-font-specification:Kartika"
         id="path2831" />
      <path
         d="m 233.58901,1030.5259 -5.81055,0 0,-32.66604 5.81055,0 z m 0,-38.81838 -5.81055,0 0,-6.25 5.81055,0 z"
         style="font-family:Kartika;-inkscape-font-specification:Kartika"
         id="path2833" />
      <path
         d="m 255.41518,1031.3071 c -2.24611,0 -4.30502,-0.3662 -6.17676,-1.0986 -1.87175,-0.7324 -3.48308,-1.8229 -4.83398,-3.2715 -1.35092,-1.4486 -2.39258,-3.2308 -3.125,-5.3467 -0.73242,-2.1158 -1.09864,-4.5735 -1.09863,-7.373 -1e-5,-2.7669 0.36621,-5.2165 1.09863,-7.3486 0.73242,-2.1322 1.77408,-3.9144 3.125,-5.3467 1.3509,-1.4323 2.96223,-2.51464 4.83398,-3.2471 1.87174,-0.73239 3.93065,-1.0986 6.17676,-1.09863 1.85545,3e-5 3.54816,0.24417 5.07813,0.73242 1.52992,0.48831 2.86456,1.18005 4.0039,2.0752 1.1393,0.89521 2.05889,1.99381 2.75879,3.29591 0.69984,1.3021 1.14743,2.7669 1.34278,4.3945 l -5.95704,0 c -0.0651,-0.9765 -0.30113,-1.8392 -0.708,-2.5879 -0.40693,-0.7486 -0.9359,-1.3753 -1.58692,-1.8799 -0.65106,-0.5045 -1.4079,-0.887 -2.27051,-1.1474 -0.86264,-0.2604 -1.74969,-0.3906 -2.66113,-0.3906 -1.39975,0 -2.66928,0.2767 -3.80859,0.83 -1.13934,0.5534 -2.1159,1.3591 -2.92969,2.417 -0.81381,1.058 -1.44858,2.3682 -1.9043,3.9307 -0.45573,1.5625 -0.6836,3.3529 -0.68359,5.3711 -1e-5,4.069 0.83821,7.1696 2.51465,9.3017 1.67642,2.1322 3.94692,3.1983 6.81152,3.1983 0.91144,0 1.79849,-0.1139 2.66113,-0.3418 0.86261,-0.2279 1.61945,-0.5859 2.27051,-1.0742 0.65102,-0.4883 1.17999,-1.1068 1.58692,-1.8555 0.40687,-0.7487 0.64288,-1.6439 0.708,-2.6855 l 5.95704,0 c -0.19535,1.7252 -0.66735,3.247 -1.41602,4.5654 -0.74873,1.3183 -1.70901,2.417 -2.88086,3.2959 -1.1719,0.8789 -2.51467,1.5462 -4.02832,2.0019 -1.51369,0.4558 -3.13316,0.6836 -4.8584,0.6836 z"
         style="font-family:Kartika;-inkscape-font-specification:Kartika"
         id="path2835" />
      <path
         d="m 302.33901,1030.5259 -27.88086,0 0,-45.06838 5.9082,0 0,39.69728 21.97266,0 z"
         style="font-family:Kartika;-inkscape-font-specification:Kartika"
         id="path2837" />
      <path
         d="m 329.48745,1021.9321 0,-7.2265 -3.95508,0 c -8.39845,0 -12.59767,2.2949 -12.59766,6.8847 -10e-6,1.6602 0.60221,2.9297 1.80664,3.8086 1.20442,0.8789 2.88085,1.3184 5.0293,1.3184 0.944,0 1.87987,-0.1058 2.80762,-0.3174 0.92771,-0.2116 1.81476,-0.529 2.66113,-0.9521 0.84633,-0.4232 1.63572,-0.9278 2.36816,-1.5137 0.7324,-0.5859 1.35903,-1.2533 1.87989,-2.002 z m 0,5.2246 c -2.99482,2.767 -6.80341,4.1504 -11.42578,4.1504 -1.59507,0 -3.07619,-0.2278 -4.44336,-0.6836 -1.3672,-0.4557 -2.54721,-1.0986 -3.54004,-1.9287 -0.99285,-0.8301 -1.76596,-1.8229 -2.31934,-2.9785 -0.55339,-1.1556 -0.83008,-2.4333 -0.83008,-3.833 0,-7.6497 6.57552,-11.4746 19.72657,-11.4746 l 2.83203,0 c -3e-5,-1.4974 -0.0651,-2.7995 -0.19531,-3.9063 -0.13024,-1.1067 -0.44762,-2.0182 -0.95215,-2.7343 -0.50458,-0.7162 -1.27769,-1.2451 -2.31934,-1.5869 -1.04169,-0.3418 -2.49025,-0.5127 -4.3457,-0.5127 -5.20835,0 -7.87762,1.8555 -8.00781,5.5664 l -5.76172,0 c 0.45572,-6.7057 5.14322,-10.0586 14.0625,-10.05863 2.08331,3e-5 3.94692,0.17093 5.59082,0.51269 1.64385,0.34183 3.03545,0.96846 4.1748,1.87989 1.1393,0.91145 2.01006,2.16475 2.61231,3.75975 0.60218,1.5951 0.90329,3.6296 0.90332,6.1035 l 0,21.0938 -5.76172,0 z"
         style="font-family:Kartika;-inkscape-font-specification:Kartika"
         id="path2839" />
      <path
         d="m 349.79995,1001.7661 c 2.5716,-3.05985 5.68032,-4.5898 9.32617,-4.58983 2.11586,3e-5 4.00388,0.3988 5.66406,1.19629 1.66013,0.79756 3.05987,1.92064 4.19922,3.36914 1.13929,1.4486 2.01006,3.2064 2.61231,5.2734 0.60218,2.0671 0.90328,4.3702 0.90332,6.9092 -4e-5,2.6367 -0.34183,5.0293 -1.02539,7.1778 -0.68363,2.1484 -1.64392,3.9794 -2.88086,5.4931 -1.23701,1.5137 -2.70185,2.6774 -4.39454,3.4912 -1.69273,0.8138 -3.53192,1.2207 -5.51757,1.2207 -3.51564,0 -6.47788,-1.1067 -8.88672,-3.3203 l 0,2.5391 -5.81055,0 0,-45.06838 5.81055,0 z m 0,20.9961 c 2.44139,2.6367 5.2897,3.9551 8.54492,3.9551 2.53904,0 4.53285,-1.058 5.98144,-3.1738 1.44855,-2.1159 2.17283,-5.3223 2.17286,-9.6192 -3e-5,-4.069 -0.68362,-7.1289 -2.05078,-9.1797 -1.36722,-2.0507 -3.32034,-3.0761 -5.85938,-3.0761 -3.19012,0 -6.1198,1.8717 -8.78906,5.6152 z"
         style="font-family:Kartika;-inkscape-font-specification:Kartika"
         id="path2841" />
    </g>
  </g>
</svg>
